<svg xmlns="http://www.w3.org/2000/svg" fill="none" viewBox="15.552 14.015999999999998 76.224 66.048" style="max-height: 500px" width="76.224" height="66.048">
<path fill="#82B536" d="M45.8474 54.4599C50.1074 54.4599 53.5674 50.9699 53.5674 46.6599C53.5674 42.3499 50.1074 38.8599 45.8474 38.8599C45.5774 38.8599 45.3174 38.8699 45.0574 38.8999C41.1674 39.2999 38.1274 42.6199 38.1274 46.6599C38.1274 47.1999 38.1774 47.7199 38.2874 48.2299C39.0074 51.7899 42.1174 54.4599 45.8474 54.4599Z"/>
<path fill="#82B536" d="M45.8474 29.1001C32.8774 29.1001 22.6974 40.8101 18.8374 46.6601C21.4074 52.5101 32.8874 64.2201 45.8474 64.2201C58.8074 64.2201 70.2874 52.5101 72.8574 46.6601C68.9974 40.8101 58.8074 29.1001 45.8474 29.1001ZM45.8474 33.0001C53.3074 33.0001 59.3574 39.1101 59.3574 46.6601C59.3574 54.2101 53.3074 60.3201 45.8474 60.3201C38.3874 60.3201 32.3374 54.2101 32.3374 46.6601C32.3374 39.1101 38.3874 33.0001 45.8474 33.0001Z" clip-rule="evenodd" fill-rule="evenodd"/>
<path fill="#FCA700" d="M67.4575 69.6199C79.7679 69.6199 89.7475 59.4926 89.7475 46.9999C89.7475 34.5072 79.7679 24.3799 67.4575 24.3799C55.1471 24.3799 45.1675 34.5072 45.1675 46.9999C45.1675 59.4926 55.1471 69.6199 67.4575 69.6199Z"/>
<path fill="#101214" d="M52.6374 30.2197C62.3574 33.1897 69.7774 41.8297 72.9474 46.5797C70.7774 51.4497 62.3174 60.4197 51.9574 63.1597C50.8774 62.1197 49.8974 60.9797 49.0374 59.7397C54.9974 58.3197 59.4274 52.9697 59.4274 46.5797C59.4274 40.1897 55.2474 35.1497 49.5574 33.5497C50.4774 32.3397 51.5074 31.2197 52.6474 30.2197H52.6374ZM46.5674 38.8797C50.5174 39.2197 53.6174 42.5397 53.6174 46.5797C53.6174 50.7197 50.3574 54.0997 46.2674 54.2997C45.4774 52.0097 45.0474 49.5597 45.0474 46.9997C45.0474 44.1297 45.5874 41.3997 46.5674 38.8797Z"/>
</svg>