<svg preserveAspectRatio="none" overflow="visible" style="display: block;" width="30.8256" height="30.8256" viewBox="0 0 30.8256 30.8256" fill="none" xmlns="http://www.w3.org/2000/svg">
<g id="ForYouGlyph" clip-path="url(#clip0_0_20)">
<path id="Vector" fill-rule="evenodd" clip-rule="evenodd" d="M15.4131 2.88996C10.1342 2.88996 5.4217 6.19986 3.63188 11.1647C1.84015 16.1315 3.35638 21.6936 7.42151 25.0653C8.065 22.7725 10.1496 21.1927 12.5232 21.1927H18.303C20.7305 21.1927 22.7727 22.8304 23.4083 25.0459C27.4736 21.6936 28.9763 16.1315 27.2039 11.1647C25.412 6.19986 20.6919 2.88996 15.4131 2.88996ZM20.7112 26.7607V26.4907C20.7112 25.1615 19.6323 24.0826 18.303 24.0826H12.5232C11.1938 24.0826 10.1149 25.1615 10.1149 26.4907V26.7607L10.2305 26.8184C11.8103 27.5313 13.5635 27.9358 15.4131 27.9358C17.2626 27.9358 19.0158 27.5313 20.5956 26.8184C20.6341 26.7992 20.6727 26.7798 20.7112 26.7607ZM0.000244141 15.4129C0.000244141 6.90115 6.90133 6.10352e-05 15.4131 6.10352e-05C23.9286 6.10352e-05 30.8259 6.90115 30.8259 15.4129C30.8259 23.9284 23.9286 30.8257 15.4131 30.8257C6.90133 30.8257 0.000244141 23.9284 0.000244141 15.4129ZM15.4131 8.66977C13.2841 8.66977 11.5599 10.3941 11.5599 12.523C11.5599 14.6519 13.2841 16.3762 15.4131 16.3762C17.542 16.3762 19.2663 14.6519 19.2663 12.523C19.2663 10.3941 17.542 8.66977 15.4131 8.66977ZM8.66995 12.523C8.66995 8.79886 11.6889 5.77986 15.4131 5.77986C19.1372 5.77986 22.1562 8.79886 22.1562 12.523C22.1562 16.2471 19.1372 19.2661 15.4131 19.2661C11.6889 19.2661 8.66995 16.2471 8.66995 12.523Z" fill="#6B6E76"/>
</g>
<defs>
<clipPath id="clip0_0_20">
<rect width="30.8256" height="30.8256" fill="white"/>
</clipPath>
</defs>
</svg>
