<svg preserveAspectRatio="none" overflow="visible" style="display: block;" width="30.8256" height="30.8256" viewBox="0 0 30.8256 30.8256" fill="none" xmlns="http://www.w3.org/2000/svg">
<g id="Container" clip-path="url(#clip0_0_18)">
<path id="Vector" fill-rule="evenodd" clip-rule="evenodd" d="M22.3211 1.6455C23.0437 0.923135 24.0236 0.517334 25.0454 0.517334C26.0671 0.517334 27.047 0.923135 27.7696 1.6455L29.1798 3.05577C29.9022 3.77835 30.308 4.75825 30.308 5.77999C30.308 6.80172 29.9022 7.78162 29.1798 8.5042L19.2848 18.4011C18.8225 18.8648 18.2496 19.2029 17.6202 19.3837L11.4763 21.1369C11.2286 21.2076 10.9665 21.2108 10.7171 21.1461C10.4678 21.0815 10.2403 20.9513 10.0581 20.7692C9.87596 20.587 9.74582 20.3595 9.68116 20.1101C9.6165 19.8608 9.61967 19.5987 9.69035 19.351L11.4436 13.207C11.6243 12.5777 11.9625 12.0048 12.4261 11.5425L22.3211 1.6455ZM25.7274 3.6877C25.6379 3.59799 25.5316 3.52681 25.4146 3.47825C25.2975 3.42969 25.1721 3.40469 25.0454 3.40469C24.9187 3.40469 24.7932 3.42969 24.6762 3.47825C24.5591 3.52681 24.4528 3.59799 24.3633 3.6877L23.2363 4.81668L26.0087 7.59099L27.1377 6.462C27.2274 6.37252 27.2985 6.26622 27.3471 6.14919C27.3957 6.03216 27.4207 5.90669 27.4207 5.77999C27.4207 5.65328 27.3957 5.52782 27.3471 5.41078C27.2985 5.29375 27.2274 5.18745 27.1377 5.09797L25.7274 3.6877ZM23.9645 9.63319L21.1922 6.85888L14.4683 13.5866C14.3521 13.7021 14.2672 13.8453 14.2217 14.0027L13.1814 17.6459L16.8226 16.6056C16.9806 16.5609 17.1245 16.4767 17.2407 16.3609L23.9645 9.63319ZM5.77935 4.81861C5.52387 4.81861 5.27885 4.9201 5.09819 5.10076C4.91754 5.28141 4.81605 5.52643 4.81605 5.78191V25.0479C4.81605 25.3034 4.91754 25.5484 5.09819 25.7291C5.27885 25.9097 5.52387 26.0112 5.77935 26.0112H25.0454C25.3008 26.0112 25.5459 25.9097 25.7265 25.7291C25.9072 25.5484 26.0087 25.3034 26.0087 25.0479V19.2662H28.8986V25.0479C28.8986 26.0699 28.4926 27.0499 27.77 27.7725C27.0474 28.4952 26.0673 28.9011 25.0454 28.9011H5.77935C4.75742 28.9011 3.77734 28.4952 3.05472 27.7725C2.33211 27.0499 1.92615 26.0699 1.92615 25.0479V5.78191C1.92615 4.75998 2.33211 3.7799 3.05472 3.05729C3.77734 2.33467 4.75742 1.92871 5.77935 1.92871H11.5592V4.81861H5.77935Z" fill="#292A2E"/>
</g>
<defs>
<clipPath id="clip0_0_18">
<rect width="30.8256" height="30.8256" fill="white"/>
</clipPath>
</defs>
</svg>
