<svg preserveAspectRatio="none" overflow="visible" style="display: block;" width="41.5331" height="56.7563" viewBox="0 0 41.5331 56.7563" fill="none" xmlns="http://www.w3.org/2000/svg">
<g id="Vector" filter="url(#filter0_dd_0_13)">
<path d="M4.15137 5.45522V43.1065C4.15137 44.2074 5.47247 44.868 6.3532 43.9872L15.3807 34.9597L21.5458 49.0515C21.9862 49.9322 22.8669 50.3726 23.7477 49.9322L28.5917 47.7304C29.4724 47.29 29.9128 46.4093 29.4724 45.5285L23.3073 31.657H36.0779C37.1788 31.657 37.8394 30.3359 36.9586 29.4552L6.3532 4.57449C5.47247 3.69376 4.15137 4.35431 4.15137 5.45522Z" fill="#101214"/>
<path d="M4.15137 5.45522V43.1065C4.15137 44.2074 5.47247 44.868 6.3532 43.9872L15.3807 34.9597L21.5458 49.0515C21.9862 49.9322 22.8669 50.3726 23.7477 49.9322L28.5917 47.7304C29.4724 47.29 29.9128 46.4093 29.4724 45.5285L23.3073 31.657H36.0779C37.1788 31.657 37.8394 30.3359 36.9586 29.4552L6.3532 4.57449C5.47247 3.69376 4.15137 4.35431 4.15137 5.45522Z" stroke="white" stroke-width="3.30274" stroke-linejoin="round"/>
</g>
<defs>
<filter id="filter0_dd_0_13" x="0" y="0" width="41.5331" height="56.7563" filterUnits="userSpaceOnUse" color-interpolation-filters="sRGB">
<feFlood flood-opacity="0" result="BackgroundImageFix"/>
<feColorMatrix in="SourceAlpha" type="matrix" values="0 0 0 0 0 0 0 0 0 0 0 0 0 0 0 0 0 0 127 0" result="hardAlpha"/>
<feOffset dy="2.5"/>
<feGaussianBlur stdDeviation="1.25"/>
<feColorMatrix type="matrix" values="0 0 0 0 0.117647 0 0 0 0 0.121569 0 0 0 0 0.129412 0 0 0 0.25 0"/>
<feBlend mode="normal" in2="BackgroundImageFix" result="effect1_dropShadow_0_13"/>
<feColorMatrix in="SourceAlpha" type="matrix" values="0 0 0 0 0 0 0 0 0 0 0 0 0 0 0 0 0 0 127 0" result="hardAlpha"/>
<feOffset/>
<feGaussianBlur stdDeviation="1.25"/>
<feColorMatrix type="matrix" values="0 0 0 0 0.117647 0 0 0 0 0.121569 0 0 0 0 0.129412 0 0 0 0.31 0"/>
<feBlend mode="normal" in2="effect1_dropShadow_0_13" result="effect2_dropShadow_0_13"/>
<feBlend mode="normal" in="SourceGraphic" in2="effect2_dropShadow_0_13" result="shape"/>
</filter>
</defs>
</svg>
