<svg width="74" height="67" fill="none" xmlns="http://www.w3.org/2000/svg"><mask id="mask0_17076_4638" style="mask-type:luminance" maskUnits="userSpaceOnUse" x="0" y="0" width="48" height="50"><path d="M47.99 18.93c0 5.64-1.95 9.88-5.27 12.87-1.59 1.44-3.52 2.58-5.68 3.47-3.48 1.43-7.61 2.14-12.11 2.21L12.74 49.36V35.83c-.62-.2-1.21-.41-1.79-.65-2.09-.88-3.96-1.99-5.53-3.38C2.02 28.8 0 24.57 0 18.93 0 13.29 2.09 8.76 5.57 5.7c1.54-1.35 3.35-2.44 5.37-3.3C14.72.79 19.26 0 24.17 0s9.2.76 12.87 2.29c2.09.86 3.96 1.99 5.53 3.4 3.41 3.07 5.42 7.43 5.42 13.23v.01Z" fill="#fff"/></mask><g mask="url(#mask0_17076_4638)"><path d="M100.89-66.97H-57.67V76.08h158.56V-66.97Z" fill="#AF59E1"/><path d="M52.95-66.97H-57.67v46.6C-43.34-3.98-23.07 6.55 1.24 10.61c4.86.81 9.88 1.37 15.05 1.66 2.8.16 5.64.24 8.52.24 7.86 0 15.42-.6 22.63-1.77C68.8 7.27 87.05-1.28 100.89-14.45v-52.52H52.95Z" fill="#FCA700"/><path d="M52.95-66.97C35.09-53.64 22.85-34.01 18.27-8.72c-1.2 6.61-1.87 13.62-1.98 20.99-.01.75-.02 1.5-.02 2.26 0 8.09.67 15.75 1.97 22.94 2.67 14.86 8.01 27.77 15.58 38.6h67.07V-66.97H52.95Z" fill="#1868DB"/><path d="M47.44 10.74c42.32-6.88 72.47-33.66 80.21-76.98 1.18-6.63 1.84-13.65 1.94-21.04-2.5-.13-5.03-.19-7.59-.19-8.2 0-16.07.65-23.56 1.9-42.28 7.06-72.35 33.72-80.15 76.85-1.2 6.61-1.87 13.62-1.98 20.99 2.8.16 5.64.24 8.52.24 7.86 0 15.42-.6 22.63-1.77h-.02Z" fill="#6A9A23"/></g><path d="M25.61 36.53c0 5.64 1.95 9.88 5.27 12.87 1.59 1.44 3.52 2.58 5.68 3.47 3.48 1.43 7.61 2.14 12.11 2.21l12.19 11.88V53.43c.62-.2 1.21-.41 1.79-.65 2.09-.88 3.96-1.99 5.53-3.38 3.4-3 5.42-7.23 5.42-12.87 0-5.64-2.09-10.17-5.57-13.23-1.54-1.35-3.35-2.44-5.37-3.3-3.78-1.61-8.32-2.4-13.23-2.4s-9.2.76-12.87 2.29c-2.09.86-3.96 1.99-5.53 3.4-3.41 3.07-5.42 7.43-5.42 13.23v.01Z" fill="#DDDEE1"/><path d="M48.01 18.93c0 5.64-1.96 9.88-5.27 12.87-1.6 1.44-3.53 2.58-5.68 3.47-3.3 1.35-7.18 2.06-11.41 2.19-.01-.31-.02-.62-.02-.93 0-5.79 2.01-10.15 5.42-13.23 1.57-1.39 3.43-2.52 5.52-3.39 3.3-1.38 7.18-2.13 11.41-2.27.02.43.03.85.03 1.29Z" fill="#101214"/></svg>