<svg xmlns="http://www.w3.org/2000/svg" width="379" height="160" viewBox="0 0 379 160" fill="none">
<rect width="379" height="160" fill="#18191A" />
<g id="Closing Kanban 162">
<rect width="1672" height="3247" transform="translate(-867 -1312)" fill="#18191A" />
<g id="Frame 2147260377">
<g id="Frame 2147260377_2">
<rect x="-4" y="-1312" width="387" height="2156" rx="12" fill="#18191A" />
<g id="Container">
<g id="Card" filter="url(#filter0_dd_8979_36407)">
<rect width="379" height="208" rx="8" fill="#18191A" />
<g id="Image" clip-path="url(#clip0_8979_36407)">
<g id="Frame 2147260381" clip-path="url(#clip1_8979_36407)">
<rect width="379" height="160" fill="#18191A" />
<g id="Graph canvas">
<g clip-path="url(#clip2_8979_36407)">
<g id="Graph gray arrows">
<path id="Vector 6" d="M155.381 86.5859C171.869 85.5921 211.471 89.7472 237.968 114.318C271.089 145.032 294.888 167.939 335.96 169.092" stroke="url(#paint0_linear_8979_36407)" stroke-width="0.799107" stroke-linecap="round" />
<path id="Vector 10" d="M346.293 -14.4941C331.261 -13.1233 296.094 -4.43129 275.684 19.3701C250.172 49.1218 231.959 71.1921 195.035 77.6012" stroke="url(#paint1_linear_8979_36407)" stroke-width="0.799107" stroke-linecap="round" />
<path id="Vector 13" d="M90.376 14.2808C119.836 48.6357 140.865 74.1208 183.503 81.5215" stroke="url(#paint2_linear_8979_36407)" stroke-width="0.799107" stroke-linecap="round" />
<path id="Polygon 63" d="M120.263 47.3664C120.244 47.2917 120.313 47.2248 120.387 47.2459L125.911 48.8199C125.985 48.841 126.008 48.9343 125.953 48.9879L121.828 52.9846C121.773 53.0381 121.68 53.0117 121.661 52.9371L120.263 47.3664Z" fill="#7E8188" />
<path id="Polygon 64" d="M243.425 53.853C243.501 53.8392 243.563 53.9126 243.537 53.9851L241.602 59.3927C241.576 59.4652 241.481 59.4824 241.431 59.4237L237.716 55.0436C237.666 54.9849 237.699 54.8943 237.774 54.8805L243.425 53.853Z" fill="#7E8188" />
<path id="Polygon 66" d="M240.537 116.354C240.565 116.426 240.506 116.502 240.43 116.491L234.743 115.682C234.667 115.671 234.631 115.582 234.679 115.521L238.222 111.001C238.27 110.94 238.365 110.954 238.394 111.025L240.537 116.354Z" fill="#7E8188" />
<g id="â Card exploration">
<rect x="54.1221" y="8.18066" width="80.8396" height="19.5197" rx="4.87993" fill="#242528" />
<rect x="54.4271" y="8.48566" width="80.2297" height="18.9097" rx="4.57494" stroke="#E3E4F2" stroke-opacity="0.14" stroke-width="0.609992" />
<g id="Frame 2933">
<g id="â Icon tile">
<path d="M59.002 14.8908C59.002 13.2063 60.3675 11.8408 62.0519 11.8408H68.1518C69.8363 11.8408 71.2018 13.2063 71.2018 14.8908V20.9907C71.2018 22.6751 69.8363 24.0407 68.1518 24.0407H62.0519C60.3675 24.0407 59.002 22.6751 59.002 20.9907V14.8908Z" fill="#CECFD2" fill-opacity="0.06" />
<g id="SVG">
<g id="&lt;Icon&gt;">
<g id="Icon">
<path id="Glyph" d="M68.076 20.1141C68.076 19.7982 67.82 19.5422 67.5042 19.5422C67.1883 19.5422 66.9323 19.7982 66.9323 20.1141C66.9323 20.4299 67.1883 20.6859 67.5042 20.6859C67.82 20.6859 68.076 20.4299 68.076 20.1141ZM68.076 15.7679C68.076 15.452 67.82 15.196 67.5042 15.196C67.1883 15.196 66.9323 15.452 66.9323 15.7679C66.9323 16.0837 67.1883 16.3397 67.5042 16.3397C67.82 16.3397 68.076 16.0837 68.076 15.7679ZM68.7623 15.7679C68.7623 16.4627 68.199 17.026 67.5042 17.026C66.9284 17.026 66.4442 16.6389 66.2948 16.111H65.4405C65.2707 16.111 65.1116 16.1947 65.0157 16.3348L63.9166 17.941L65.0157 19.5471C65.1116 19.6872 65.2707 19.7709 65.4405 19.7709H66.2948C66.4442 19.2431 66.9284 18.856 67.5042 18.856C68.199 18.856 68.7623 19.4192 68.7623 20.1141C68.7623 20.8089 68.199 21.3722 67.5042 21.3722C66.9284 21.3722 66.4442 20.9851 66.2948 20.4572H65.4405C65.0441 20.4572 64.673 20.2616 64.4492 19.9345L63.3202 18.2841H61.4424V17.5978H63.3202L64.4492 15.9475C64.673 15.6203 65.0441 15.4248 65.4405 15.4248H66.2948C66.4442 14.8969 66.9284 14.5098 67.5042 14.5098C68.199 14.5098 68.7623 15.073 68.7623 15.7679Z" fill="#AF59E1" />
</g>
</g>
</g>
</g>
<g id="Frame 849">
<path id="Device manager" d="M78.2866 20.4409H77.0562V19.8667H78.2456C78.6603 19.8667 79.0033 19.7881 79.2744 19.6309C79.5479 19.4714 79.7518 19.2435 79.8862 18.9473C80.0207 18.651 80.0879 18.2967 80.0879 17.8843C80.0879 17.4764 80.0207 17.1266 79.8862 16.835C79.7541 16.541 79.5558 16.3154 79.2915 16.1582C79.0295 16.001 78.7013 15.9224 78.3071 15.9224H77.0288V15.3481H78.3516C78.8483 15.3481 79.2721 15.4495 79.623 15.6523C79.9762 15.8551 80.2463 16.1468 80.4331 16.5273C80.6222 16.9056 80.7168 17.3579 80.7168 17.8843C80.7168 18.4152 80.6222 18.8721 80.4331 19.2549C80.244 19.6354 79.9683 19.9282 79.606 20.1333C79.2437 20.3384 78.8039 20.4409 78.2866 20.4409ZM77.3467 15.3481V20.4409H76.6973V15.3481H77.3467ZM83.2803 20.5229C82.9111 20.5229 82.5921 20.4409 82.3232 20.2769C82.0566 20.1128 81.8504 19.8838 81.7046 19.5898C81.561 19.2959 81.4893 18.953 81.4893 18.561C81.4893 18.1691 81.5599 17.8239 81.7012 17.5254C81.8424 17.2269 82.0418 16.9933 82.2993 16.8247C82.5591 16.6561 82.8621 16.5718 83.2085 16.5718C83.4113 16.5718 83.6107 16.606 83.8066 16.6743C84.0049 16.7404 84.1838 16.8486 84.3433 16.999C84.505 17.1471 84.6338 17.3431 84.7295 17.5869C84.8252 17.8307 84.873 18.1292 84.873 18.4824V18.7388H81.9062V18.2192H84.5415L84.2544 18.4106C84.2544 18.16 84.2145 17.9378 84.1348 17.7441C84.0573 17.5482 83.9411 17.3955 83.7861 17.2861C83.6312 17.1745 83.4386 17.1187 83.2085 17.1187C82.9784 17.1187 82.7812 17.1756 82.6172 17.2896C82.4531 17.4012 82.3278 17.5482 82.2412 17.7305C82.1546 17.9105 82.1113 18.1042 82.1113 18.3115V18.6567C82.1113 18.9393 82.1603 19.1797 82.2583 19.3779C82.3563 19.5739 82.493 19.7231 82.6685 19.8257C82.8462 19.9259 83.0513 19.9761 83.2837 19.9761C83.4341 19.9761 83.5708 19.9544 83.6938 19.9111C83.8169 19.8678 83.9229 19.8029 84.0117 19.7163C84.1006 19.6274 84.1689 19.5181 84.2168 19.3882L84.8115 19.5522C84.7523 19.7437 84.652 19.9123 84.5107 20.0581C84.3695 20.2039 84.194 20.3179 83.9844 20.3999C83.777 20.4819 83.5423 20.5229 83.2803 20.5229ZM86.7222 20.4409L85.2627 16.6196H85.936L86.7495 18.8857C86.8361 19.1204 86.909 19.3551 86.9683 19.5898C87.0298 19.8223 87.0936 20.0479 87.1597 20.2666H86.9341C87.0002 20.0479 87.0628 19.8223 87.1221 19.5898C87.1836 19.3551 87.2565 19.1204 87.3408 18.8857L88.1543 16.6196H88.8276L87.3682 20.4409H86.7222ZM89.5557 20.4409V16.6196H90.1709V20.4409H89.5557ZM89.5317 16.0181V15.3481H90.2017V16.0181H89.5317ZM92.8062 20.5229C92.4598 20.5229 92.1556 20.4409 91.8936 20.2769C91.6338 20.1128 91.431 19.8826 91.2852 19.5864C91.1393 19.2902 91.0664 18.9461 91.0664 18.5542C91.0664 18.1554 91.1393 17.8079 91.2852 17.5117C91.431 17.2132 91.6338 16.9819 91.8936 16.8179C92.1556 16.6538 92.4598 16.5718 92.8062 16.5718C92.9907 16.5718 93.165 16.5957 93.3291 16.6436C93.4932 16.6914 93.6424 16.7609 93.7769 16.8521C93.9136 16.9409 94.0309 17.0514 94.1289 17.1836C94.2269 17.3135 94.3021 17.4616 94.3545 17.6279L93.7632 17.7954C93.7358 17.6974 93.6937 17.6074 93.6367 17.5254C93.5798 17.4434 93.5103 17.3727 93.4282 17.3135C93.3485 17.252 93.2562 17.2052 93.1514 17.1733C93.0465 17.1392 92.9315 17.1221 92.8062 17.1221C92.5509 17.1221 92.3413 17.1893 92.1772 17.3237C92.0132 17.4559 91.8913 17.6302 91.8115 17.8467C91.7318 18.0632 91.6919 18.299 91.6919 18.5542C91.6919 18.8049 91.7318 19.0384 91.8115 19.2549C91.8913 19.4691 92.0132 19.6423 92.1772 19.7744C92.3413 19.9066 92.5509 19.9727 92.8062 19.9727C92.9338 19.9727 93.0511 19.9556 93.1582 19.9214C93.2653 19.8872 93.3599 19.8394 93.4419 19.7778C93.5262 19.714 93.5968 19.6388 93.6538 19.5522C93.7108 19.4657 93.7529 19.3711 93.7803 19.2686L94.3682 19.436C94.318 19.6069 94.2428 19.7596 94.1426 19.894C94.0446 20.0262 93.9272 20.1401 93.7905 20.2358C93.6538 20.3293 93.5023 20.3999 93.3359 20.4478C93.1696 20.4979 92.993 20.5229 92.8062 20.5229ZM96.8564 20.5229C96.4873 20.5229 96.1683 20.4409 95.8994 20.2769C95.6328 20.1128 95.4266 19.8838 95.2808 19.5898C95.1372 19.2959 95.0654 18.953 95.0654 18.561C95.0654 18.1691 95.1361 17.8239 95.2773 17.5254C95.4186 17.2269 95.618 16.9933 95.8755 16.8247C96.1353 16.6561 96.4383 16.5718 96.7847 16.5718C96.9875 16.5718 97.1868 16.606 97.3828 16.6743C97.5811 16.7404 97.7599 16.8486 97.9194 16.999C98.0812 17.1471 98.21 17.3431 98.3057 17.5869C98.4014 17.8307 98.4492 18.1292 98.4492 18.4824V18.7388H95.4824V18.2192H98.1177L97.8306 18.4106C97.8306 18.16 97.7907 17.9378 97.7109 17.7441C97.6335 17.5482 97.5173 17.3955 97.3623 17.2861C97.2074 17.1745 97.0148 17.1187 96.7847 17.1187C96.5545 17.1187 96.3574 17.1756 96.1934 17.2896C96.0293 17.4012 95.904 17.5482 95.8174 17.7305C95.7308 17.9105 95.6875 18.1042 95.6875 18.3115V18.6567C95.6875 18.9393 95.7365 19.1797 95.8345 19.3779C95.9325 19.5739 96.0692 19.7231 96.2446 19.8257C96.4224 19.9259 96.6274 19.9761 96.8599 19.9761C97.0103 19.9761 97.147 19.9544 97.27 19.9111C97.3931 19.8678 97.499 19.8029 97.5879 19.7163C97.6768 19.6274 97.7451 19.5181 97.793 19.3882L98.3877 19.5522C98.3285 19.7437 98.2282 19.9123 98.0869 20.0581C97.9456 20.2039 97.7702 20.3179 97.5605 20.3999C97.3532 20.4819 97.1185 20.5229 96.8564 20.5229ZM101.3 20.4409V16.6196H101.898L101.901 17.4741H101.854C101.906 17.2668 101.988 17.0959 102.1 16.9614C102.214 16.8247 102.346 16.7222 102.496 16.6538C102.649 16.5854 102.807 16.5513 102.971 16.5513C103.249 16.5513 103.474 16.6367 103.645 16.8076C103.818 16.9785 103.929 17.203 103.979 17.481H103.897C103.943 17.2896 104.026 17.1243 104.147 16.9854C104.268 16.8464 104.414 16.7393 104.584 16.6641C104.758 16.5889 104.946 16.5513 105.148 16.5513C105.369 16.5513 105.571 16.5991 105.753 16.6948C105.936 16.7905 106.08 16.9352 106.188 17.1289C106.297 17.3226 106.352 17.5675 106.352 17.8638V20.4409H105.736V17.8809C105.736 17.6051 105.659 17.408 105.504 17.2896C105.349 17.1711 105.169 17.1118 104.964 17.1118C104.793 17.1118 104.645 17.1483 104.52 17.2212C104.396 17.2918 104.301 17.3898 104.232 17.5151C104.166 17.6405 104.133 17.784 104.133 17.9458V20.4409H103.518V17.8193C103.518 17.6074 103.447 17.4365 103.306 17.3066C103.165 17.1768 102.986 17.1118 102.77 17.1118C102.621 17.1118 102.481 17.1471 102.349 17.2178C102.219 17.2861 102.114 17.3887 102.035 17.5254C101.955 17.6621 101.915 17.8319 101.915 18.0347V20.4409H101.3ZM108.501 20.5298C108.26 20.5298 108.04 20.4842 107.842 20.3931C107.646 20.3019 107.49 20.1686 107.374 19.9932C107.257 19.8177 107.199 19.6047 107.199 19.354C107.199 19.1353 107.243 18.9575 107.329 18.8208C107.416 18.6841 107.531 18.577 107.674 18.4995C107.82 18.4198 107.981 18.3605 108.156 18.3218C108.332 18.283 108.508 18.2523 108.686 18.2295C108.914 18.1999 109.1 18.1771 109.243 18.1611C109.387 18.1452 109.493 18.1178 109.561 18.0791C109.632 18.0404 109.667 17.9743 109.667 17.8809V17.8604C109.667 17.7008 109.637 17.5664 109.578 17.457C109.519 17.3454 109.43 17.2599 109.312 17.2007C109.193 17.1414 109.045 17.1118 108.867 17.1118C108.685 17.1118 108.529 17.1403 108.399 17.1973C108.269 17.2542 108.163 17.326 108.081 17.4126C108.001 17.4969 107.941 17.5835 107.9 17.6724L107.309 17.4775C107.407 17.2451 107.539 17.064 107.705 16.9341C107.871 16.8019 108.055 16.7085 108.255 16.6538C108.456 16.5991 108.654 16.5718 108.85 16.5718C108.978 16.5718 109.122 16.5877 109.284 16.6196C109.448 16.6493 109.605 16.7096 109.756 16.8008C109.909 16.8919 110.034 17.0275 110.132 17.2075C110.232 17.3853 110.282 17.6234 110.282 17.9219V20.4409H109.677V19.9214H109.636C109.593 20.0103 109.523 20.1025 109.428 20.1982C109.332 20.2917 109.208 20.3703 109.055 20.4341C108.903 20.4979 108.718 20.5298 108.501 20.5298ZM108.607 19.9863C108.835 19.9863 109.028 19.9419 109.185 19.853C109.342 19.7642 109.462 19.6491 109.544 19.5078C109.626 19.3643 109.667 19.215 109.667 19.0601V18.5303C109.642 18.5599 109.587 18.5872 109.503 18.6123C109.419 18.6351 109.322 18.6556 109.212 18.6738C109.105 18.6921 109 18.708 108.898 18.7217C108.798 18.7331 108.718 18.7422 108.659 18.749C108.511 18.7673 108.372 18.7992 108.242 18.8447C108.114 18.888 108.012 18.953 107.934 19.0396C107.857 19.1239 107.818 19.2389 107.818 19.3848C107.818 19.5169 107.852 19.6274 107.92 19.7163C107.989 19.8052 108.082 19.8724 108.201 19.918C108.319 19.9635 108.455 19.9863 108.607 19.9863ZM111.978 18.1509V20.4409H111.362V16.6196H111.954L111.957 17.5459H111.872C111.988 17.1927 112.153 16.9421 112.367 16.7939C112.584 16.6458 112.837 16.5718 113.126 16.5718C113.383 16.5718 113.609 16.6253 113.803 16.7324C113.996 16.8372 114.147 16.9967 114.254 17.2109C114.363 17.4229 114.418 17.6906 114.418 18.0142V20.4409H113.803V18.0654C113.803 17.7715 113.725 17.5413 113.57 17.375C113.418 17.2087 113.208 17.1255 112.941 17.1255C112.759 17.1255 112.595 17.1654 112.449 17.2451C112.303 17.3249 112.188 17.4411 112.104 17.5938C112.02 17.7464 111.978 17.9321 111.978 18.1509ZM116.568 20.5298C116.326 20.5298 116.106 20.4842 115.908 20.3931C115.712 20.3019 115.556 20.1686 115.44 19.9932C115.324 19.8177 115.266 19.6047 115.266 19.354C115.266 19.1353 115.309 18.9575 115.396 18.8208C115.482 18.6841 115.597 18.577 115.741 18.4995C115.887 18.4198 116.047 18.3605 116.223 18.3218C116.398 18.283 116.575 18.2523 116.752 18.2295C116.98 18.1999 117.166 18.1771 117.31 18.1611C117.453 18.1452 117.559 18.1178 117.627 18.0791C117.698 18.0404 117.733 17.9743 117.733 17.8809V17.8604C117.733 17.7008 117.704 17.5664 117.645 17.457C117.585 17.3454 117.496 17.2599 117.378 17.2007C117.259 17.1414 117.111 17.1118 116.934 17.1118C116.751 17.1118 116.595 17.1403 116.465 17.1973C116.335 17.2542 116.229 17.326 116.147 17.4126C116.068 17.4969 116.007 17.5835 115.966 17.6724L115.375 17.4775C115.473 17.2451 115.605 17.064 115.771 16.9341C115.938 16.8019 116.121 16.7085 116.322 16.6538C116.522 16.5991 116.721 16.5718 116.917 16.5718C117.044 16.5718 117.189 16.5877 117.351 16.6196C117.515 16.6493 117.672 16.7096 117.822 16.8008C117.975 16.8919 118.1 17.0275 118.198 17.2075C118.299 17.3853 118.349 17.6234 118.349 17.9219V20.4409H117.744V19.9214H117.703C117.659 20.0103 117.59 20.1025 117.494 20.1982C117.398 20.2917 117.274 20.3703 117.122 20.4341C116.969 20.4979 116.784 20.5298 116.568 20.5298ZM116.674 19.9863C116.902 19.9863 117.094 19.9419 117.251 19.853C117.409 19.7642 117.528 19.6491 117.61 19.5078C117.692 19.3643 117.733 19.215 117.733 19.0601V18.5303C117.708 18.5599 117.654 18.5872 117.569 18.6123C117.485 18.6351 117.388 18.6556 117.279 18.6738C117.172 18.6921 117.067 18.708 116.964 18.7217C116.864 18.7331 116.784 18.7422 116.725 18.749C116.577 18.7673 116.438 18.7992 116.308 18.8447C116.181 18.888 116.078 18.953 116 19.0396C115.923 19.1239 115.884 19.2389 115.884 19.3848C115.884 19.5169 115.918 19.6274 115.987 19.7163C116.055 19.8052 116.149 19.8724 116.267 19.918C116.386 19.9635 116.521 19.9863 116.674 19.9863ZM120.977 21.9517C120.694 21.9517 120.45 21.9152 120.242 21.8423C120.037 21.7716 119.866 21.6771 119.729 21.5586C119.593 21.4401 119.485 21.3114 119.405 21.1724L119.904 20.8511C119.958 20.924 120.026 21.0049 120.105 21.0938C120.188 21.1826 120.297 21.2578 120.434 21.3193C120.573 21.3831 120.754 21.415 120.977 21.415C121.282 21.415 121.533 21.3421 121.729 21.1963C121.927 21.0505 122.026 20.8203 122.026 20.5059V19.7402H121.968C121.925 19.8132 121.863 19.8997 121.784 20C121.706 20.1003 121.593 20.1891 121.445 20.2666C121.299 20.3418 121.104 20.3794 120.857 20.3794C120.552 20.3794 120.278 20.3076 120.034 20.1641C119.79 20.0182 119.597 19.8063 119.456 19.5283C119.315 19.2503 119.244 18.9119 119.244 18.5132C119.244 18.119 119.314 17.7772 119.453 17.4878C119.592 17.1961 119.783 16.9705 120.027 16.811C120.273 16.6515 120.554 16.5718 120.871 16.5718C121.117 16.5718 121.313 16.6128 121.459 16.6948C121.607 16.7746 121.721 16.8669 121.801 16.9717C121.881 17.0765 121.942 17.1631 121.985 17.2314H122.043V16.6196H122.642V20.54C122.642 20.8682 122.568 21.1359 122.419 21.3433C122.271 21.5529 122.071 21.7067 121.818 21.8047C121.567 21.9027 121.287 21.9517 120.977 21.9517ZM120.96 19.8325C121.192 19.8325 121.388 19.7801 121.548 19.6753C121.707 19.5682 121.828 19.4155 121.91 19.2173C121.992 19.0168 122.033 18.7775 122.033 18.4995C122.033 18.2284 121.992 17.9902 121.91 17.7852C121.83 17.5778 121.711 17.416 121.551 17.2998C121.392 17.1813 121.195 17.1221 120.96 17.1221C120.718 17.1221 120.517 17.1847 120.355 17.3101C120.193 17.4331 120.071 17.5983 119.989 17.8057C119.91 18.013 119.87 18.2443 119.87 18.4995C119.87 18.7616 119.911 18.9928 119.993 19.1934C120.075 19.3939 120.197 19.5511 120.358 19.665C120.52 19.7767 120.721 19.8325 120.96 19.8325ZM125.328 20.5229C124.959 20.5229 124.64 20.4409 124.371 20.2769C124.104 20.1128 123.898 19.8838 123.752 19.5898C123.609 19.2959 123.537 18.953 123.537 18.561C123.537 18.1691 123.608 17.8239 123.749 17.5254C123.89 17.2269 124.09 16.9933 124.347 16.8247C124.607 16.6561 124.91 16.5718 125.256 16.5718C125.459 16.5718 125.659 16.606 125.854 16.6743C126.053 16.7404 126.232 16.8486 126.391 16.999C126.553 17.1471 126.682 17.3431 126.777 17.5869C126.873 17.8307 126.921 18.1292 126.921 18.4824V18.7388H123.954V18.2192H126.589L126.302 18.4106C126.302 18.16 126.262 17.9378 126.183 17.7441C126.105 17.5482 125.989 17.3955 125.834 17.2861C125.679 17.1745 125.486 17.1187 125.256 17.1187C125.026 17.1187 124.829 17.1756 124.665 17.2896C124.501 17.4012 124.376 17.5482 124.289 17.7305C124.202 17.9105 124.159 18.1042 124.159 18.3115V18.6567C124.159 18.9393 124.208 19.1797 124.306 19.3779C124.404 19.5739 124.541 19.7231 124.716 19.8257C124.894 19.9259 125.099 19.9761 125.332 19.9761C125.482 19.9761 125.619 19.9544 125.742 19.9111C125.865 19.8678 125.971 19.8029 126.06 19.7163C126.148 19.6274 126.217 19.5181 126.265 19.3882L126.859 19.5522C126.8 19.7437 126.7 19.9123 126.559 20.0581C126.417 20.2039 126.242 20.3179 126.032 20.3999C125.825 20.4819 125.59 20.5229 125.328 20.5229ZM127.803 20.4409V16.6196H128.397V17.2075H128.438C128.509 17.0138 128.634 16.8589 128.814 16.7427C128.997 16.6242 129.202 16.5649 129.43 16.5649C129.475 16.5649 129.529 16.5661 129.59 16.5684C129.654 16.5706 129.704 16.5729 129.741 16.5752V17.1938C129.722 17.1893 129.677 17.1825 129.604 17.1733C129.531 17.1642 129.454 17.1597 129.372 17.1597C129.189 17.1597 129.025 17.1984 128.879 17.2759C128.736 17.3511 128.623 17.4559 128.541 17.5903C128.459 17.7225 128.418 17.8752 128.418 18.0483V20.4409H127.803Z" fill="#CECFD2" />
</g>
</g>
</g>
<g id="Card - March" filter="url(#filter1_d_8979_36407)">
<path d="M226.991 28.1534C226.991 25.4583 229.176 23.2734 231.871 23.2734H306.951C309.646 23.2734 311.831 25.4583 311.831 28.1534V37.9132C311.831 40.6084 309.646 42.7932 306.951 42.7932H231.871C229.176 42.7932 226.991 40.6084 226.991 37.9132V28.1534Z" fill="#242528" />
<path d="M231.871 23.5781H306.951C309.478 23.5783 311.525 25.6268 311.525 28.1533V37.9131C311.525 40.4397 309.478 42.4881 306.951 42.4883H231.871C229.344 42.4883 227.296 40.4397 227.296 37.9131V28.1533C227.296 25.6267 229.344 23.5782 231.871 23.5781Z" stroke="#E3E4F2" stroke-opacity="0.14" stroke-width="0.609992" />
<g id="Frame 2933_2">
<g id="â Icon tile_2">
<path d="M231.871 29.9836C231.871 28.2991 233.237 26.9336 234.921 26.9336H241.021C242.705 26.9336 244.071 28.2991 244.071 29.9836V36.0835C244.071 37.7679 242.705 39.1334 241.021 39.1334H234.921C233.237 39.1334 231.871 37.7679 231.871 36.0835V29.9836Z" fill="#CECFD2" fill-opacity="0.06" />
<g id="SVG_2">
<g id="&lt;Icon&gt;_2">
<g id="Icon_2">
<path id="Glyph_2" d="M240.945 35.2068C240.945 34.891 240.689 34.635 240.373 34.635C240.057 34.635 239.801 34.891 239.801 35.2068C239.801 35.5227 240.057 35.7787 240.373 35.7787C240.689 35.7787 240.945 35.5227 240.945 35.2068ZM240.945 30.8606C240.945 30.5448 240.689 30.2888 240.373 30.2888C240.057 30.2888 239.801 30.5448 239.801 30.8606C239.801 31.1765 240.057 31.4325 240.373 31.4325C240.689 31.4325 240.945 31.1765 240.945 30.8606ZM241.631 30.8606C241.631 31.5555 241.068 32.1188 240.373 32.1188C239.798 32.1188 239.313 31.7317 239.164 31.2038H238.31C238.14 31.2038 237.981 31.2875 237.885 31.4276L236.786 33.0337L237.885 34.6399C237.981 34.78 238.14 34.8637 238.31 34.8637H239.164C239.313 34.3358 239.798 33.9487 240.373 33.9487C241.068 33.9487 241.631 34.512 241.631 35.2068C241.631 35.9017 241.068 36.4649 240.373 36.4649C239.798 36.4649 239.313 36.0778 239.164 35.55H238.31C237.913 35.55 237.542 35.3544 237.318 35.0272L236.189 33.3769H234.312V32.6906H236.189L237.318 31.0402C237.542 30.7131 237.913 30.5175 238.31 30.5175H239.164C239.313 29.9896 239.798 29.6025 240.373 29.6025C241.068 29.6025 241.631 30.1658 241.631 30.8606Z" fill="#AF59E1" />
</g>
</g>
</g>
</g>
<g id="Frame 849_2">
<path id="session-manager" d="M250.79 35.6157C250.528 35.6157 250.294 35.5781 250.089 35.5029C249.887 35.4255 249.719 35.3115 249.587 35.1611C249.455 35.0107 249.366 34.8262 249.32 34.6074L249.905 34.4673C249.959 34.6769 250.062 34.8307 250.212 34.9287C250.365 35.0267 250.555 35.0757 250.783 35.0757C251.05 35.0757 251.262 35.0187 251.419 34.9048C251.578 34.7909 251.658 34.6553 251.658 34.498C251.658 34.3659 251.611 34.2565 251.518 34.1699C251.427 34.0811 251.287 34.015 251.098 33.9717L250.462 33.8213C250.116 33.7393 249.858 33.6128 249.689 33.4419C249.521 33.2687 249.437 33.0477 249.437 32.7788C249.437 32.5601 249.498 32.3675 249.621 32.2012C249.744 32.0326 249.912 31.9015 250.124 31.8081C250.338 31.7124 250.58 31.6646 250.852 31.6646C251.114 31.6646 251.336 31.7044 251.518 31.7842C251.703 31.8617 251.852 31.9699 251.966 32.1089C252.082 32.2456 252.169 32.404 252.226 32.584L251.668 32.7275C251.616 32.5908 251.528 32.4666 251.405 32.355C251.285 32.2433 251.101 32.1875 250.855 32.1875C250.627 32.1875 250.437 32.2399 250.284 32.3447C250.134 32.4495 250.059 32.5817 250.059 32.7412C250.059 32.8825 250.11 32.9964 250.212 33.083C250.315 33.1673 250.478 33.2357 250.701 33.2881L251.279 33.4248C251.625 33.5068 251.882 33.6344 252.048 33.8076C252.214 33.9785 252.297 34.195 252.297 34.457C252.297 34.6803 252.234 34.8797 252.106 35.0552C251.981 35.2284 251.804 35.3651 251.576 35.4653C251.351 35.5656 251.089 35.6157 250.79 35.6157ZM254.796 35.6157C254.427 35.6157 254.108 35.5337 253.839 35.3696C253.572 35.2056 253.366 34.9766 253.22 34.6826C253.077 34.3887 253.005 34.0457 253.005 33.6538C253.005 33.2619 253.076 32.9167 253.217 32.6182C253.358 32.3197 253.557 32.0861 253.815 31.9175C254.075 31.7489 254.378 31.6646 254.724 31.6646C254.927 31.6646 255.126 31.6987 255.322 31.7671C255.521 31.8332 255.699 31.9414 255.859 32.0918C256.021 32.2399 256.149 32.4359 256.245 32.6797C256.341 32.9235 256.389 33.222 256.389 33.5752V33.8315H253.422V33.312H256.057L255.77 33.5034C255.77 33.2528 255.73 33.0306 255.65 32.8369C255.573 32.641 255.457 32.4883 255.302 32.3789C255.147 32.2673 254.954 32.2114 254.724 32.2114C254.494 32.2114 254.297 32.2684 254.133 32.3823C253.969 32.494 253.843 32.641 253.757 32.8232C253.67 33.0033 253.627 33.1969 253.627 33.4043V33.7495C253.627 34.0321 253.676 34.2725 253.774 34.4707C253.872 34.6667 254.009 34.8159 254.184 34.9185C254.362 35.0187 254.567 35.0688 254.799 35.0688C254.95 35.0688 255.086 35.0472 255.209 35.0039C255.333 34.9606 255.438 34.8957 255.527 34.8091C255.616 34.7202 255.685 34.6108 255.732 34.481L256.327 34.645C256.268 34.8364 256.168 35.005 256.026 35.1509C255.885 35.2967 255.71 35.4106 255.5 35.4927C255.293 35.5747 255.058 35.6157 254.796 35.6157ZM258.569 35.6157C258.307 35.6157 258.074 35.5781 257.869 35.5029C257.666 35.4255 257.498 35.3115 257.366 35.1611C257.234 35.0107 257.145 34.8262 257.1 34.6074L257.684 34.4673C257.739 34.6769 257.841 34.8307 257.992 34.9287C258.144 35.0267 258.335 35.0757 258.562 35.0757C258.829 35.0757 259.041 35.0187 259.198 34.9048C259.358 34.7909 259.438 34.6553 259.438 34.498C259.438 34.3659 259.391 34.2565 259.297 34.1699C259.206 34.0811 259.066 34.015 258.877 33.9717L258.241 33.8213C257.895 33.7393 257.637 33.6128 257.469 33.4419C257.3 33.2687 257.216 33.0477 257.216 32.7788C257.216 32.5601 257.277 32.3675 257.4 32.2012C257.523 32.0326 257.691 31.9015 257.903 31.8081C258.117 31.7124 258.36 31.6646 258.631 31.6646C258.893 31.6646 259.115 31.7044 259.297 31.7842C259.482 31.8617 259.631 31.9699 259.745 32.1089C259.861 32.2456 259.948 32.404 260.005 32.584L259.448 32.7275C259.395 32.5908 259.308 32.4666 259.185 32.355C259.064 32.2433 258.88 32.1875 258.634 32.1875C258.406 32.1875 258.216 32.2399 258.063 32.3447C257.913 32.4495 257.838 32.5817 257.838 32.7412C257.838 32.8825 257.889 32.9964 257.992 33.083C258.094 33.1673 258.257 33.2357 258.48 33.2881L259.058 33.4248C259.404 33.5068 259.661 33.6344 259.827 33.8076C259.993 33.9785 260.077 34.195 260.077 34.457C260.077 34.6803 260.013 34.8797 259.885 35.0552C259.76 35.2284 259.583 35.3651 259.355 35.4653C259.13 35.5656 258.868 35.6157 258.569 35.6157ZM262.268 35.6157C262.006 35.6157 261.772 35.5781 261.567 35.5029C261.364 35.4255 261.197 35.3115 261.064 35.1611C260.932 35.0107 260.843 34.8262 260.798 34.6074L261.382 34.4673C261.437 34.6769 261.54 34.8307 261.69 34.9287C261.843 35.0267 262.033 35.0757 262.261 35.0757C262.527 35.0757 262.739 35.0187 262.896 34.9048C263.056 34.7909 263.136 34.6553 263.136 34.498C263.136 34.3659 263.089 34.2565 262.996 34.1699C262.904 34.0811 262.764 34.015 262.575 33.9717L261.939 33.8213C261.593 33.7393 261.336 33.6128 261.167 33.4419C260.998 33.2687 260.914 33.0477 260.914 32.7788C260.914 32.5601 260.976 32.3675 261.099 32.2012C261.222 32.0326 261.389 31.9015 261.601 31.8081C261.815 31.7124 262.058 31.6646 262.329 31.6646C262.591 31.6646 262.813 31.7044 262.996 31.7842C263.18 31.8617 263.329 31.9699 263.443 32.1089C263.56 32.2456 263.646 32.404 263.703 32.584L263.146 32.7275C263.094 32.5908 263.006 32.4666 262.883 32.355C262.762 32.2433 262.579 32.1875 262.333 32.1875C262.105 32.1875 261.914 32.2399 261.762 32.3447C261.611 32.4495 261.536 32.5817 261.536 32.7412C261.536 32.8825 261.587 32.9964 261.69 33.083C261.792 33.1673 261.955 33.2357 262.179 33.2881L262.756 33.4248C263.103 33.5068 263.359 33.6344 263.525 33.8076C263.692 33.9785 263.775 34.195 263.775 34.457C263.775 34.6803 263.711 34.8797 263.583 35.0552C263.458 35.2284 263.282 35.3651 263.054 35.4653C262.828 35.5656 262.566 35.6157 262.268 35.6157ZM264.667 35.5337V31.7124H265.282V35.5337H264.667ZM264.643 31.1108V30.4409H265.313V31.1108H264.643ZM267.917 35.6157C267.571 35.6157 267.267 35.5337 267.005 35.3696C266.745 35.2056 266.542 34.9754 266.396 34.6792C266.251 34.383 266.178 34.0389 266.178 33.647C266.178 33.2482 266.251 32.9007 266.396 32.6045C266.542 32.306 266.745 32.0747 267.005 31.9106C267.267 31.7466 267.571 31.6646 267.917 31.6646C268.266 31.6646 268.571 31.7466 268.833 31.9106C269.096 32.0747 269.299 32.306 269.445 32.6045C269.591 32.9007 269.664 33.2482 269.664 33.647C269.664 34.0389 269.591 34.383 269.445 34.6792C269.299 34.9754 269.096 35.2056 268.833 35.3696C268.571 35.5337 268.266 35.6157 267.917 35.6157ZM267.917 35.0654C268.175 35.0654 268.387 34.9993 268.553 34.8672C268.72 34.735 268.843 34.5618 268.922 34.3477C269.002 34.1312 269.042 33.8976 269.042 33.647C269.042 33.394 269.002 33.1593 268.922 32.9429C268.843 32.7241 268.72 32.5487 268.553 32.4165C268.387 32.2821 268.175 32.2148 267.917 32.2148C267.662 32.2148 267.453 32.2821 267.289 32.4165C267.125 32.5487 267.003 32.723 266.923 32.9395C266.843 33.1559 266.803 33.3918 266.803 33.647C266.803 33.8976 266.843 34.1312 266.923 34.3477C267.003 34.5618 267.125 34.735 267.289 34.8672C267.453 34.9993 267.662 35.0654 267.917 35.0654ZM271.175 33.2437V35.5337H270.56V31.7124H271.151L271.154 32.6387H271.069C271.185 32.2855 271.35 32.0348 271.564 31.8867C271.781 31.7386 272.034 31.6646 272.323 31.6646C272.581 31.6646 272.806 31.7181 273 31.8252C273.194 31.93 273.344 32.0895 273.451 32.3037C273.561 32.5156 273.615 32.7834 273.615 33.1069V35.5337H273V33.1582C273 32.8643 272.923 32.6341 272.768 32.4678C272.615 32.3014 272.405 32.2183 272.139 32.2183C271.956 32.2183 271.792 32.2581 271.646 32.3379C271.501 32.4176 271.386 32.5339 271.301 32.6865C271.217 32.8392 271.175 33.0249 271.175 33.2437ZM276.883 33.0762V33.6436H274.647V33.0762H276.883ZM277.915 35.5337V31.7124H278.513L278.517 32.5669H278.469C278.521 32.3595 278.603 32.1886 278.715 32.0542C278.829 31.9175 278.961 31.8149 279.111 31.7466C279.264 31.6782 279.422 31.644 279.586 31.644C279.864 31.644 280.089 31.7295 280.26 31.9004C280.433 32.0713 280.545 32.2957 280.595 32.5737H280.513C280.558 32.3823 280.641 32.2171 280.762 32.0781C280.883 31.9391 281.029 31.832 281.2 31.7568C281.373 31.6816 281.561 31.644 281.764 31.644C281.985 31.644 282.186 31.6919 282.369 31.7876C282.551 31.8833 282.696 32.028 282.803 32.2217C282.912 32.4154 282.967 32.6603 282.967 32.9565V35.5337H282.352V32.9736C282.352 32.6979 282.274 32.5008 282.119 32.3823C281.964 32.2638 281.784 32.2046 281.579 32.2046C281.408 32.2046 281.26 32.241 281.135 32.314C281.012 32.3846 280.916 32.4826 280.848 32.6079C280.782 32.7332 280.749 32.8768 280.749 33.0386V35.5337H280.133V32.9121C280.133 32.7002 280.063 32.5293 279.921 32.3994C279.78 32.2695 279.601 32.2046 279.385 32.2046C279.237 32.2046 279.097 32.2399 278.964 32.3105C278.834 32.3789 278.73 32.4814 278.65 32.6182C278.57 32.7549 278.53 32.9246 278.53 33.1274V35.5337H277.915ZM285.117 35.6226C284.875 35.6226 284.655 35.577 284.457 35.4858C284.261 35.3947 284.105 35.2614 283.989 35.0859C283.873 34.9105 283.814 34.6974 283.814 34.4468C283.814 34.228 283.858 34.0503 283.944 33.9136C284.031 33.7769 284.146 33.6698 284.29 33.5923C284.435 33.5125 284.596 33.4533 284.771 33.4146C284.947 33.3758 285.124 33.3451 285.301 33.3223C285.529 33.2926 285.715 33.2699 285.858 33.2539C286.002 33.238 286.108 33.2106 286.176 33.1719C286.247 33.1331 286.282 33.0671 286.282 32.9736V32.9531C286.282 32.7936 286.253 32.6592 286.193 32.5498C286.134 32.4382 286.045 32.3527 285.927 32.2935C285.808 32.2342 285.66 32.2046 285.482 32.2046C285.3 32.2046 285.144 32.2331 285.014 32.29C284.884 32.347 284.778 32.4188 284.696 32.5054C284.617 32.5897 284.556 32.6763 284.515 32.7651L283.924 32.5703C284.022 32.3379 284.154 32.1567 284.32 32.0269C284.487 31.8947 284.67 31.8013 284.871 31.7466C285.071 31.6919 285.269 31.6646 285.465 31.6646C285.593 31.6646 285.738 31.6805 285.899 31.7124C286.063 31.742 286.221 31.8024 286.371 31.8936C286.524 31.9847 286.649 32.1203 286.747 32.3003C286.847 32.478 286.897 32.7161 286.897 33.0146V35.5337H286.292V35.0142H286.251C286.208 35.103 286.139 35.1953 286.043 35.291C285.947 35.3844 285.823 35.4631 285.67 35.5269C285.518 35.5907 285.333 35.6226 285.117 35.6226ZM285.223 35.0791C285.451 35.0791 285.643 35.0347 285.8 34.9458C285.958 34.8569 286.077 34.7419 286.159 34.6006C286.241 34.457 286.282 34.3078 286.282 34.1528V33.623C286.257 33.6527 286.202 33.68 286.118 33.7051C286.034 33.7279 285.937 33.7484 285.828 33.7666C285.721 33.7848 285.616 33.8008 285.513 33.8145C285.413 33.8258 285.333 33.835 285.274 33.8418C285.126 33.86 284.987 33.8919 284.857 33.9375C284.729 33.9808 284.627 34.0457 284.549 34.1323C284.472 34.2166 284.433 34.3317 284.433 34.4775C284.433 34.6097 284.467 34.7202 284.536 34.8091C284.604 34.8979 284.697 34.9652 284.816 35.0107C284.934 35.0563 285.07 35.0791 285.223 35.0791ZM288.593 33.2437V35.5337H287.978V31.7124H288.569L288.572 32.6387H288.487C288.603 32.2855 288.768 32.0348 288.982 31.8867C289.199 31.7386 289.452 31.6646 289.741 31.6646C289.999 31.6646 290.224 31.7181 290.418 31.8252C290.612 31.93 290.762 32.0895 290.869 32.3037C290.979 32.5156 291.033 32.7834 291.033 33.1069V35.5337H290.418V33.1582C290.418 32.8643 290.34 32.6341 290.186 32.4678C290.033 32.3014 289.823 32.2183 289.557 32.2183C289.374 32.2183 289.21 32.2581 289.064 32.3379C288.919 32.4176 288.804 32.5339 288.719 32.6865C288.635 32.8392 288.593 33.0249 288.593 33.2437ZM293.183 35.6226C292.942 35.6226 292.722 35.577 292.523 35.4858C292.327 35.3947 292.171 35.2614 292.055 35.0859C291.939 34.9105 291.881 34.6974 291.881 34.4468C291.881 34.228 291.924 34.0503 292.011 33.9136C292.097 33.7769 292.212 33.6698 292.356 33.5923C292.502 33.5125 292.662 33.4533 292.838 33.4146C293.013 33.3758 293.19 33.3451 293.368 33.3223C293.596 33.2926 293.781 33.2699 293.925 33.2539C294.068 33.238 294.174 33.2106 294.243 33.1719C294.313 33.1331 294.349 33.0671 294.349 32.9736V32.9531C294.349 32.7936 294.319 32.6592 294.26 32.5498C294.201 32.4382 294.112 32.3527 293.993 32.2935C293.875 32.2342 293.727 32.2046 293.549 32.2046C293.367 32.2046 293.21 32.2331 293.081 32.29C292.951 32.347 292.845 32.4188 292.763 32.5054C292.683 32.5897 292.623 32.6763 292.582 32.7651L291.99 32.5703C292.088 32.3379 292.22 32.1567 292.387 32.0269C292.553 31.8947 292.736 31.8013 292.937 31.7466C293.138 31.6919 293.336 31.6646 293.532 31.6646C293.659 31.6646 293.804 31.6805 293.966 31.7124C294.13 31.742 294.287 31.8024 294.438 31.8936C294.59 31.9847 294.715 32.1203 294.813 32.3003C294.914 32.478 294.964 32.7161 294.964 33.0146V35.5337H294.359V35.0142H294.318C294.275 35.103 294.205 35.1953 294.109 35.291C294.014 35.3844 293.889 35.4631 293.737 35.5269C293.584 35.5907 293.4 35.6226 293.183 35.6226ZM293.289 35.0791C293.517 35.0791 293.709 35.0347 293.867 34.9458C294.024 34.8569 294.144 34.7419 294.226 34.6006C294.308 34.457 294.349 34.3078 294.349 34.1528V33.623C294.324 33.6527 294.269 33.68 294.185 33.7051C294.1 33.7279 294.003 33.7484 293.894 33.7666C293.787 33.7848 293.682 33.8008 293.58 33.8145C293.479 33.8258 293.4 33.835 293.34 33.8418C293.192 33.86 293.053 33.8919 292.923 33.9375C292.796 33.9808 292.693 34.0457 292.616 34.1323C292.538 34.2166 292.5 34.3317 292.5 34.4775C292.5 34.6097 292.534 34.7202 292.602 34.8091C292.67 34.8979 292.764 34.9652 292.882 35.0107C293.001 35.0563 293.136 35.0791 293.289 35.0791ZM297.592 37.0444C297.31 37.0444 297.065 37.008 296.857 36.9351C296.652 36.8644 296.481 36.7699 296.345 36.6514C296.208 36.5329 296.1 36.4041 296.02 36.2651L296.519 35.9438C296.574 36.0168 296.641 36.0977 296.721 36.1865C296.803 36.2754 296.912 36.3506 297.049 36.4121C297.188 36.4759 297.369 36.5078 297.592 36.5078C297.898 36.5078 298.148 36.4349 298.344 36.2891C298.542 36.1432 298.642 35.9131 298.642 35.5986V34.833H298.583C298.54 34.9059 298.479 34.9925 298.399 35.0928C298.321 35.193 298.209 35.2819 298.061 35.3594C297.915 35.4346 297.719 35.4722 297.473 35.4722C297.167 35.4722 296.893 35.4004 296.649 35.2568C296.405 35.111 296.213 34.8991 296.071 34.6211C295.93 34.3431 295.859 34.0047 295.859 33.606C295.859 33.2118 295.929 32.87 296.068 32.5806C296.207 32.2889 296.398 32.0633 296.642 31.9038C296.888 31.7443 297.17 31.6646 297.486 31.6646C297.732 31.6646 297.928 31.7056 298.074 31.7876C298.222 31.8674 298.336 31.9596 298.416 32.0645C298.496 32.1693 298.557 32.2559 298.601 32.3242H298.659V31.7124H299.257V35.6328C299.257 35.9609 299.183 36.2287 299.035 36.436C298.887 36.6457 298.686 36.7995 298.433 36.8975C298.182 36.9954 297.902 37.0444 297.592 37.0444ZM297.575 34.9253C297.808 34.9253 298.004 34.8729 298.163 34.7681C298.323 34.661 298.443 34.5083 298.525 34.3101C298.607 34.1095 298.648 33.8703 298.648 33.5923C298.648 33.3211 298.607 33.083 298.525 32.8779C298.446 32.6706 298.326 32.5088 298.167 32.3926C298.007 32.2741 297.81 32.2148 297.575 32.2148C297.334 32.2148 297.132 32.2775 296.97 32.4028C296.808 32.5259 296.687 32.6911 296.604 32.8984C296.525 33.1058 296.485 33.3371 296.485 33.5923C296.485 33.8543 296.526 34.0856 296.608 34.2861C296.69 34.4867 296.812 34.6439 296.974 34.7578C297.135 34.8695 297.336 34.9253 297.575 34.9253ZM301.943 35.6157C301.574 35.6157 301.255 35.5337 300.986 35.3696C300.72 35.2056 300.514 34.9766 300.368 34.6826C300.224 34.3887 300.152 34.0457 300.152 33.6538C300.152 33.2619 300.223 32.9167 300.364 32.6182C300.506 32.3197 300.705 32.0861 300.962 31.9175C301.222 31.7489 301.525 31.6646 301.872 31.6646C302.074 31.6646 302.274 31.6987 302.47 31.7671C302.668 31.8332 302.847 31.9414 303.006 32.0918C303.168 32.2399 303.297 32.4359 303.393 32.6797C303.488 32.9235 303.536 33.222 303.536 33.5752V33.8315H300.569V33.312H303.205L302.917 33.5034C302.917 33.2528 302.878 33.0306 302.798 32.8369C302.72 32.641 302.604 32.4883 302.449 32.3789C302.294 32.2673 302.102 32.2114 301.872 32.2114C301.641 32.2114 301.444 32.2684 301.28 32.3823C301.116 32.494 300.991 32.641 300.904 32.8232C300.818 33.0033 300.774 33.1969 300.774 33.4043V33.7495C300.774 34.0321 300.823 34.2725 300.921 34.4707C301.019 34.6667 301.156 34.8159 301.332 34.9185C301.509 35.0187 301.714 35.0688 301.947 35.0688C302.097 35.0688 302.234 35.0472 302.357 35.0039C302.48 34.9606 302.586 34.8957 302.675 34.8091C302.764 34.7202 302.832 34.6108 302.88 34.481L303.475 34.645C303.415 34.8364 303.315 35.005 303.174 35.1509C303.033 35.2967 302.857 35.4106 302.647 35.4927C302.44 35.5747 302.205 35.6157 301.943 35.6157ZM304.418 35.5337V31.7124H305.013V32.3003H305.054C305.124 32.1066 305.25 31.9517 305.43 31.8354C305.612 31.717 305.817 31.6577 306.045 31.6577C306.09 31.6577 306.144 31.6589 306.206 31.6611C306.269 31.6634 306.319 31.6657 306.356 31.668V32.2866C306.338 32.2821 306.292 32.2752 306.219 32.2661C306.146 32.257 306.069 32.2524 305.987 32.2524C305.805 32.2524 305.64 32.2912 305.495 32.3687C305.351 32.4438 305.238 32.5487 305.156 32.6831C305.074 32.8153 305.033 32.9679 305.033 33.1411V35.5337H304.418Z" fill="#CECFD2" />
</g>
</g>
</g>
<g id="Card - March_2">
<g id="Card - New" filter="url(#filter2_d_8979_36407)">
<rect x="75" y="65.96" width="234.542" height="36" rx="8" fill="#42221F" />
<rect x="75.25" y="66.21" width="234.042" height="35.5" rx="7.75" stroke="#E2483D" stroke-width="0.5" />
<g id="Frame 2933_3">
<g id="â Icon tile_3">
<path d="M82.7139 79.1228C82.7139 76.4513 84.8796 74.2856 87.5511 74.2856H97.2255C99.897 74.2856 102.063 76.4513 102.063 79.1228V88.7972C102.063 91.4687 99.897 93.6344 97.2255 93.6344H87.5511C84.8796 93.6344 82.7139 91.4687 82.7139 88.7972V79.1228Z" fill="#CECFD2" fill-opacity="0.06" />
<g id="SVG_3">
<g id="&lt;Icon&gt;_3">
<g id="Icon_3">
<path id="Glyph_3" d="M97.1049 87.4064C97.1049 86.9055 96.6988 86.4994 96.1979 86.4994C95.697 86.4994 95.2909 86.9055 95.2909 87.4064C95.2909 87.9073 95.697 88.3134 96.1979 88.3134C96.6988 88.3134 97.1049 87.9073 97.1049 87.4064ZM97.1049 80.5134C97.1049 80.0125 96.6988 79.6064 96.1979 79.6064C95.697 79.6064 95.2909 80.0125 95.2909 80.5134C95.2909 81.0143 95.697 81.4204 96.1979 81.4204C96.6988 81.4204 97.1049 81.0143 97.1049 80.5134ZM98.1933 80.5134C98.1933 81.6154 97.2999 82.5088 96.1979 82.5088C95.2848 82.5088 94.5169 81.8948 94.2798 81.0576H92.925C92.6557 81.0576 92.4033 81.1904 92.2512 81.4126L90.5081 83.9599L92.2512 86.5072C92.4033 86.7295 92.6557 86.8622 92.925 86.8622H94.2798C94.5169 86.025 95.2848 85.4111 96.1979 85.4111C97.2999 85.4111 98.1933 86.3044 98.1933 87.4064C98.1933 88.5084 97.2999 89.4018 96.1979 89.4018C95.2848 89.4018 94.5169 88.7878 94.2798 87.9506H92.925C92.2963 87.9506 91.7077 87.6404 91.3527 87.1216L89.5621 84.5041H86.584V83.4157H89.5621L91.3527 80.7983C91.7077 80.2794 92.2963 79.9692 92.925 79.9692H94.2798C94.5169 79.132 95.2848 78.5181 96.1979 78.5181C97.2999 78.5181 98.1933 79.4114 98.1933 80.5134Z" fill="#C9372C" />
</g>
</g>
</g>
</g>
<g id="Frame 849_3">
<path id="amer-payments-gateway" d="M112.406 88.1012C112.007 88.1012 111.646 88.0278 111.322 87.8809C110.998 87.7302 110.742 87.5117 110.553 87.2254C110.365 86.9392 110.271 86.5889 110.271 86.1745C110.271 85.8167 110.339 85.5229 110.474 85.2931C110.613 85.0633 110.8 84.8806 111.033 84.745C111.271 84.6094 111.533 84.5077 111.819 84.4399C112.109 84.3721 112.403 84.3213 112.7 84.2874C113.073 84.2422 113.376 84.2064 113.61 84.18C113.843 84.1499 114.015 84.1028 114.124 84.0388C114.237 83.971 114.294 83.8636 114.294 83.7167V83.6828C114.294 83.4455 114.248 83.2459 114.158 83.0839C114.068 82.9219 113.932 82.7976 113.751 82.711C113.574 82.6206 113.352 82.5754 113.084 82.5754C112.81 82.5754 112.572 82.6187 112.373 82.7054C112.177 82.7882 112.017 82.8956 111.892 83.0274C111.772 83.1592 111.681 83.2967 111.621 83.4399L110.452 83.1348C110.595 82.7581 110.8 82.4549 111.067 82.2251C111.335 81.9953 111.642 81.8277 111.988 81.7222C112.335 81.6168 112.693 81.564 113.062 81.564C113.318 81.564 113.589 81.5942 113.875 81.6544C114.162 81.7147 114.431 81.8239 114.683 81.9821C114.936 82.1403 115.141 82.3626 115.299 82.6489C115.458 82.9351 115.537 83.308 115.537 83.7676V87.96H114.333V87.0955H114.271C114.188 87.2575 114.066 87.4157 113.904 87.5701C113.742 87.7245 113.536 87.8526 113.288 87.9543C113.043 88.0522 112.749 88.1012 112.406 88.1012ZM112.683 87.1011C113.022 87.1011 113.312 87.0352 113.553 86.9034C113.795 86.7716 113.979 86.5964 114.107 86.3779C114.235 86.1595 114.299 85.9278 114.299 85.683V84.875C114.254 84.9202 114.167 84.9616 114.039 84.9993C113.915 85.0332 113.772 85.0652 113.61 85.0954C113.448 85.1217 113.292 85.1443 113.141 85.1632C112.99 85.182 112.866 85.1971 112.768 85.2084C112.535 85.2385 112.32 85.2893 112.124 85.3609C111.932 85.4325 111.777 85.5342 111.661 85.666C111.548 85.7979 111.491 85.973 111.491 86.1915C111.491 86.3911 111.542 86.5587 111.644 86.6943C111.749 86.8299 111.89 86.9316 112.067 86.9994C112.244 87.0672 112.45 87.1011 112.683 87.1011ZM117.215 87.96V81.6431H118.396L118.429 83.1065H118.333C118.424 82.7487 118.563 82.4549 118.752 82.2251C118.94 81.9953 119.16 81.8239 119.413 81.7109C119.665 81.5942 119.929 81.5358 120.204 81.5358C120.663 81.5358 121.034 81.6789 121.317 81.9652C121.599 82.2477 121.789 82.6432 121.887 83.1517H121.729C121.812 82.8052 121.955 82.5114 122.159 82.2703C122.362 82.0292 122.607 81.8465 122.893 81.7222C123.183 81.5979 123.492 81.5358 123.82 81.5358C124.193 81.5358 124.53 81.6168 124.831 81.7787C125.136 81.9407 125.377 82.1818 125.554 82.502C125.731 82.8221 125.82 83.2214 125.82 83.6998V87.96H124.577V83.8241C124.577 83.4022 124.458 83.0971 124.221 82.9088C123.987 82.7204 123.71 82.6263 123.39 82.6263C123.13 82.6263 122.906 82.6809 122.718 82.7901C122.53 82.8993 122.385 83.0519 122.283 83.2478C122.181 83.4399 122.13 83.6621 122.13 83.9145V87.96H120.904V83.745C120.904 83.406 120.795 83.1348 120.577 82.9314C120.362 82.728 120.087 82.6263 119.752 82.6263C119.522 82.6263 119.307 82.6809 119.107 82.7901C118.912 82.8956 118.753 83.0538 118.633 83.2647C118.516 83.4719 118.458 83.728 118.458 84.0331V87.96H117.215ZM130.221 88.0899C129.6 88.0899 129.063 87.9562 128.611 87.6888C128.159 87.4213 127.811 87.0446 127.566 86.5587C127.325 86.0728 127.204 85.5022 127.204 84.8467C127.204 84.1989 127.323 83.6282 127.56 83.1348C127.801 82.6413 128.14 82.2571 128.577 81.9821C129.014 81.7034 129.526 81.564 130.114 81.564C130.476 81.564 130.824 81.6243 131.159 81.7448C131.494 81.8616 131.796 82.0462 132.063 82.2985C132.331 82.5509 132.542 82.8786 132.696 83.2817C132.854 83.6809 132.933 84.1669 132.933 84.7394V85.1801H127.899V84.2535H132.295L131.713 84.5586C131.713 84.1706 131.653 83.8297 131.532 83.5359C131.412 83.2384 131.233 83.0067 130.995 82.841C130.762 82.6752 130.468 82.5924 130.114 82.5924C129.764 82.5924 129.464 82.6771 129.216 82.8466C128.967 83.0161 128.777 83.2402 128.645 83.519C128.517 83.7939 128.453 84.0953 128.453 84.423V85.0558C128.453 85.489 128.526 85.8562 128.673 86.1576C128.824 86.4551 129.033 86.6812 129.3 86.8356C129.568 86.9863 129.878 87.0616 130.233 87.0616C130.466 87.0616 130.677 87.0296 130.865 86.9655C131.054 86.8977 131.216 86.7979 131.351 86.6661C131.491 86.5305 131.596 86.3647 131.668 86.1689L132.837 86.4457C132.736 86.7697 132.564 87.0559 132.323 87.3045C132.086 87.5532 131.788 87.7471 131.43 87.8865C131.076 88.0221 130.673 88.0899 130.221 88.0899ZM134.301 87.96V81.6431H135.504V82.6602H135.572C135.689 82.3136 135.892 82.0424 136.182 81.8465C136.472 81.6507 136.802 81.5527 137.171 81.5527C137.25 81.5527 137.34 81.5565 137.442 81.564C137.544 81.5678 137.629 81.5753 137.696 81.5866V82.7732C137.651 82.7581 137.565 82.743 137.436 82.728C137.308 82.7129 137.178 82.7054 137.047 82.7054C136.76 82.7054 136.502 82.7656 136.273 82.8862C136.043 83.0067 135.864 83.1743 135.736 83.389C135.608 83.6 135.544 83.8448 135.544 84.1235V87.96H134.301ZM142.047 83.8749V84.9485H138.307V83.8749H142.047ZM143.691 90.3217V81.6431H144.9V82.6715H145.002C145.077 82.5396 145.181 82.3871 145.313 82.2138C145.448 82.0405 145.635 81.8899 145.872 81.7618C146.113 81.63 146.431 81.564 146.827 81.564C147.332 81.564 147.782 81.6921 148.177 81.9482C148.577 82.2044 148.891 82.5754 149.121 83.0613C149.351 83.5472 149.466 84.133 149.466 84.8185C149.466 85.4965 149.353 86.0804 149.127 86.57C148.901 87.0559 148.588 87.4307 148.189 87.6944C147.793 87.9543 147.339 88.0843 146.827 88.0843C146.446 88.0843 146.134 88.0202 145.889 87.8922C145.648 87.7603 145.458 87.6078 145.318 87.4345C145.183 87.2612 145.077 87.1068 145.002 86.9712H144.934V90.3217H143.691ZM146.55 87.0277C146.912 87.0277 147.215 86.9298 147.46 86.7339C147.705 86.538 147.887 86.2725 148.008 85.9372C148.132 85.602 148.194 85.2253 148.194 84.8072C148.194 84.3929 148.132 84.0218 148.008 83.6941C147.887 83.3627 147.705 83.1009 147.46 82.9088C147.219 82.7167 146.915 82.6206 146.55 82.6206C146.196 82.6206 145.897 82.7129 145.652 82.8975C145.407 83.0783 145.222 83.3325 145.098 83.6602C144.974 83.9842 144.912 84.3665 144.912 84.8072C144.912 85.2441 144.974 85.6302 145.098 85.9655C145.226 86.2969 145.413 86.5568 145.657 86.7452C145.902 86.9335 146.2 87.0277 146.55 87.0277ZM152.726 88.1012C152.326 88.1012 151.965 88.0278 151.641 87.8809C151.317 87.7302 151.061 87.5117 150.872 87.2254C150.684 86.9392 150.59 86.5889 150.59 86.1745C150.59 85.8167 150.658 85.5229 150.793 85.2931C150.933 85.0633 151.119 84.8806 151.353 84.745C151.59 84.6094 151.852 84.5077 152.138 84.4399C152.428 84.3721 152.722 84.3213 153.019 84.2874C153.392 84.2422 153.696 84.2064 153.929 84.18C154.163 84.1499 154.334 84.1028 154.443 84.0388C154.556 83.971 154.613 83.8636 154.613 83.7167V83.6828C154.613 83.4455 154.568 83.2459 154.477 83.0839C154.387 82.9219 154.251 82.7976 154.07 82.711C153.893 82.6206 153.671 82.5754 153.404 82.5754C153.129 82.5754 152.891 82.6187 152.692 82.7054C152.496 82.7882 152.336 82.8956 152.211 83.0274C152.091 83.1592 152.001 83.2967 151.94 83.4399L150.771 83.1348C150.914 82.7581 151.119 82.4549 151.387 82.2251C151.654 81.9953 151.961 81.8277 152.308 81.7222C152.654 81.6168 153.012 81.564 153.381 81.564C153.637 81.564 153.908 81.5942 154.195 81.6544C154.481 81.7147 154.75 81.8239 155.003 81.9821C155.255 82.1403 155.46 82.3626 155.619 82.6489C155.777 82.9351 155.856 83.308 155.856 83.7676V87.96H154.652V87.0955H154.59C154.507 87.2575 154.385 87.4157 154.223 87.5701C154.061 87.7245 153.856 87.8526 153.607 87.9543C153.362 88.0522 153.068 88.1012 152.726 88.1012ZM153.003 87.1011C153.342 87.1011 153.632 87.0352 153.873 86.9034C154.114 86.7716 154.298 86.5964 154.426 86.3779C154.554 86.1595 154.618 85.9278 154.618 85.683V84.875C154.573 84.9202 154.487 84.9616 154.359 84.9993C154.234 85.0332 154.091 85.0652 153.929 85.0954C153.767 85.1217 153.611 85.1443 153.46 85.1632C153.31 85.182 153.185 85.1971 153.087 85.2084C152.854 85.2385 152.639 85.2893 152.443 85.3609C152.251 85.4325 152.097 85.5342 151.98 85.666C151.867 85.7979 151.81 85.973 151.81 86.1915C151.81 86.3911 151.861 86.5587 151.963 86.6943C152.068 86.8299 152.21 86.9316 152.387 86.9994C152.564 87.0672 152.769 87.1011 153.003 87.1011ZM157.268 90.2313L157.573 89.2199L157.715 89.2538C157.929 89.3103 158.122 89.3254 158.291 89.299C158.464 89.2727 158.613 89.1917 158.737 89.0561C158.865 88.9242 158.967 88.7227 159.042 88.4515L159.178 87.9882L156.777 81.6431H158.122L159.37 85.231C159.51 85.6302 159.624 86.0276 159.715 86.4231C159.809 86.8186 159.911 87.2123 160.02 87.604H159.636C159.745 87.2123 159.849 86.8186 159.947 86.4231C160.048 86.0239 160.169 85.6265 160.308 85.231L161.579 81.6431H162.913L160.167 88.8357C160.039 89.1747 159.881 89.4572 159.692 89.6832C159.508 89.9092 159.287 90.0788 159.031 90.1918C158.775 90.3085 158.477 90.3669 158.138 90.3669C157.943 90.3669 157.767 90.3518 157.613 90.3217C157.459 90.2953 157.344 90.2652 157.268 90.2313ZM164.009 87.96V81.6431H165.19L165.224 83.1065H165.128C165.218 82.7487 165.357 82.4549 165.546 82.2251C165.734 81.9953 165.954 81.8239 166.207 81.7109C166.459 81.5942 166.723 81.5358 166.998 81.5358C167.457 81.5358 167.828 81.6789 168.111 81.9652C168.393 82.2477 168.584 82.6432 168.682 83.1517H168.523C168.606 82.8052 168.749 82.5114 168.953 82.2703C169.156 82.0292 169.401 81.8465 169.687 81.7222C169.977 81.5979 170.286 81.5358 170.614 81.5358C170.987 81.5358 171.324 81.6168 171.625 81.7787C171.93 81.9407 172.171 82.1818 172.348 82.502C172.526 82.8221 172.614 83.2214 172.614 83.6998V87.96H171.371V83.8241C171.371 83.4022 171.252 83.0971 171.015 82.9088C170.782 82.7204 170.505 82.6263 170.185 82.6263C169.925 82.6263 169.7 82.6809 169.512 82.7901C169.324 82.8993 169.179 83.0519 169.077 83.2478C168.975 83.4399 168.925 83.6621 168.925 83.9145V87.96H167.698V83.745C167.698 83.406 167.589 83.1348 167.371 82.9314C167.156 82.728 166.881 82.6263 166.546 82.6263C166.316 82.6263 166.101 82.6809 165.902 82.7901C165.706 82.8956 165.548 83.0538 165.427 83.2647C165.31 83.4719 165.252 83.728 165.252 84.0331V87.96H164.009ZM177.015 88.0899C176.394 88.0899 175.857 87.9562 175.405 87.6888C174.953 87.4213 174.605 87.0446 174.36 86.5587C174.119 86.0728 173.998 85.5022 173.998 84.8467C173.998 84.1989 174.117 83.6282 174.354 83.1348C174.595 82.6413 174.934 82.2571 175.371 81.9821C175.808 81.7034 176.321 81.564 176.908 81.564C177.27 81.564 177.618 81.6243 177.953 81.7448C178.289 81.8616 178.59 82.0462 178.857 82.2985C179.125 82.5509 179.336 82.8786 179.49 83.2817C179.648 83.6809 179.728 84.1669 179.728 84.7394V85.1801H174.693V84.2535H179.089L178.507 84.5586C178.507 84.1706 178.447 83.8297 178.326 83.5359C178.206 83.2384 178.027 83.0067 177.79 82.841C177.556 82.6752 177.262 82.5924 176.908 82.5924C176.558 82.5924 176.258 82.6771 176.01 82.8466C175.761 83.0161 175.571 83.2402 175.439 83.519C175.311 83.7939 175.247 84.0953 175.247 84.423V85.0558C175.247 85.489 175.32 85.8562 175.467 86.1576C175.618 86.4551 175.827 86.6812 176.095 86.8356C176.362 86.9863 176.673 87.0616 177.027 87.0616C177.26 87.0616 177.471 87.0296 177.66 86.9655C177.848 86.8977 178.01 86.7979 178.146 86.6661C178.285 86.5305 178.39 86.3647 178.462 86.1689L179.631 86.4457C179.53 86.7697 179.358 87.0559 179.117 87.3045C178.88 87.5532 178.582 87.7471 178.225 87.8865C177.871 88.0221 177.468 88.0899 177.015 88.0899ZM182.338 84.2196V87.96H181.095V81.6431H182.281L182.293 83.1913H182.163C182.347 82.6263 182.615 82.2138 182.965 81.9539C183.315 81.694 183.739 81.564 184.236 81.564C184.666 81.564 185.041 81.6544 185.361 81.8352C185.681 82.016 185.931 82.2835 186.112 82.6376C186.293 82.9879 186.383 83.4248 186.383 83.9484V87.96H185.14V84.1009C185.14 83.6452 185.022 83.2892 184.784 83.0331C184.547 82.7769 184.221 82.6489 183.807 82.6489C183.528 82.6489 183.278 82.711 183.055 82.8353C182.833 82.9558 182.658 83.1329 182.53 83.3664C182.402 83.6 182.338 83.8843 182.338 84.2196ZM190.757 81.6431V82.6545H187.333V81.6431H190.757ZM188.254 80.1402H189.497V86.2536C189.497 86.506 189.549 86.6925 189.655 86.813C189.764 86.9298 189.941 86.9881 190.186 86.9881C190.25 86.9881 190.335 86.9806 190.44 86.9655C190.546 86.9505 190.636 86.9354 190.711 86.9203L190.932 87.9148C190.8 87.96 190.659 87.992 190.508 88.0108C190.357 88.0334 190.208 88.0447 190.062 88.0447C189.489 88.0447 189.045 87.8978 188.728 87.604C188.412 87.3064 188.254 86.8902 188.254 86.3553V80.1402ZM194.164 88.0899C193.708 88.0899 193.301 88.024 192.943 87.8922C192.589 87.7603 192.297 87.5663 192.067 87.3102C191.841 87.0503 191.691 86.7339 191.615 86.361L192.785 86.118C192.872 86.4457 193.034 86.6887 193.271 86.8469C193.508 87.0051 193.81 87.0842 194.175 87.0842C194.574 87.0842 194.892 87.0013 195.13 86.8356C195.367 86.6661 195.486 86.4646 195.486 86.231C195.486 86.0276 195.412 85.86 195.265 85.7282C195.122 85.5963 194.9 85.4984 194.599 85.4344L193.536 85.1914C192.949 85.0596 192.512 84.8486 192.226 84.5586C191.939 84.2686 191.796 83.8975 191.796 83.4455C191.796 83.0688 191.902 82.7393 192.113 82.4568C192.324 82.1742 192.612 81.9558 192.977 81.8013C193.342 81.6431 193.764 81.564 194.243 81.564C194.698 81.564 195.088 81.63 195.412 81.7618C195.736 81.8936 195.998 82.0782 196.198 82.3155C196.401 82.5528 196.546 82.8278 196.633 83.1404L195.52 83.3834C195.441 83.1611 195.303 82.9671 195.107 82.8014C194.911 82.6319 194.627 82.5472 194.254 82.5472C193.911 82.5472 193.625 82.6244 193.395 82.7788C193.165 82.9332 193.051 83.1291 193.051 83.3664C193.051 83.5774 193.126 83.7487 193.277 83.8806C193.431 84.0086 193.681 84.1122 194.028 84.1913L195.045 84.4173C195.629 84.5492 196.062 84.7563 196.345 85.0389C196.627 85.3214 196.768 85.683 196.768 86.1237C196.768 86.5079 196.657 86.8488 196.435 87.1463C196.216 87.4402 195.911 87.6718 195.52 87.8413C195.132 88.007 194.68 88.0899 194.164 88.0899ZM201.848 83.8749V84.9485H198.107V83.8749H201.848ZM206.131 90.4573C205.645 90.4573 205.223 90.3952 204.865 90.2709C204.507 90.1466 204.211 89.9808 203.978 89.7736C203.748 89.5665 203.573 89.3367 203.452 89.0843L204.492 88.5928C204.567 88.7133 204.667 88.8395 204.791 88.9713C204.92 89.1069 205.091 89.2218 205.306 89.316C205.52 89.4102 205.795 89.4572 206.131 89.4572C206.613 89.4572 207.003 89.3424 207.3 89.1126C207.601 88.8866 207.752 88.5306 207.752 88.0447V86.813H207.645C207.569 86.9524 207.464 87.103 207.328 87.265C207.197 87.427 207.01 87.5682 206.769 87.6888C206.532 87.8055 206.221 87.8639 205.837 87.8639C205.34 87.8639 204.891 87.7471 204.492 87.5136C204.096 87.2801 203.782 86.9335 203.548 86.474C203.315 86.0144 203.198 85.4494 203.198 84.7789C203.198 84.1085 203.313 83.534 203.543 83.0557C203.776 82.5735 204.093 82.2044 204.492 81.9482C204.895 81.6921 205.349 81.564 205.854 81.564C206.242 81.564 206.556 81.6281 206.797 81.7561C207.042 81.8842 207.232 82.0368 207.368 82.2138C207.507 82.3871 207.613 82.5396 207.684 82.6715H207.775V81.6431H208.989V88.0504C208.989 88.6041 208.863 89.058 208.611 89.412C208.362 89.7699 208.021 90.0336 207.588 90.2031C207.159 90.3726 206.673 90.4573 206.131 90.4573ZM206.125 86.8299C206.479 86.8299 206.777 86.749 207.018 86.587C207.262 86.4212 207.447 86.1839 207.571 85.8751C207.696 85.5624 207.758 85.1914 207.758 84.762C207.758 84.3364 207.696 83.9634 207.571 83.6433C207.447 83.3231 207.262 83.0726 207.018 82.8918C206.777 82.711 206.479 82.6206 206.125 82.6206C205.759 82.6206 205.454 82.7167 205.21 82.9088C204.965 83.0971 204.78 83.3532 204.656 83.6772C204.532 83.9973 204.469 84.359 204.469 84.762C204.469 85.1726 204.532 85.5342 204.656 85.8468C204.78 86.1557 204.965 86.3968 205.21 86.57C205.458 86.7433 205.763 86.8299 206.125 86.8299ZM212.436 88.1012C212.037 88.1012 211.675 88.0278 211.351 87.8809C211.027 87.7302 210.771 87.5117 210.583 87.2254C210.394 86.9392 210.3 86.5889 210.3 86.1745C210.3 85.8167 210.368 85.5229 210.504 85.2931C210.643 85.0633 210.83 84.8806 211.063 84.745C211.3 84.6094 211.562 84.5077 211.848 84.4399C212.138 84.3721 212.432 84.3213 212.73 84.2874C213.103 84.2422 213.406 84.2064 213.64 84.18C213.873 84.1499 214.044 84.1028 214.154 84.0388C214.267 83.971 214.323 83.8636 214.323 83.7167V83.6828C214.323 83.4455 214.278 83.2459 214.188 83.0839C214.097 82.9219 213.962 82.7976 213.781 82.711C213.604 82.6206 213.381 82.5754 213.114 82.5754C212.839 82.5754 212.602 82.6187 212.402 82.7054C212.206 82.7882 212.046 82.8956 211.922 83.0274C211.801 83.1592 211.711 83.2967 211.651 83.4399L210.481 83.1348C210.624 82.7581 210.83 82.4549 211.097 82.2251C211.364 81.9953 211.671 81.8277 212.018 81.7222C212.364 81.6168 212.722 81.564 213.091 81.564C213.348 81.564 213.619 81.5942 213.905 81.6544C214.191 81.7147 214.461 81.8239 214.713 81.9821C214.965 82.1403 215.171 82.3626 215.329 82.6489C215.487 82.9351 215.566 83.308 215.566 83.7676V87.96H214.363V87.0955H214.301C214.218 87.2575 214.095 87.4157 213.933 87.5701C213.771 87.7245 213.566 87.8526 213.317 87.9543C213.073 88.0522 212.779 88.1012 212.436 88.1012ZM212.713 87.1011C213.052 87.1011 213.342 87.0352 213.583 86.9034C213.824 86.7716 214.009 86.5964 214.137 86.3779C214.265 86.1595 214.329 85.9278 214.329 85.683V84.875C214.284 84.9202 214.197 84.9616 214.069 84.9993C213.945 85.0332 213.801 85.0652 213.64 85.0954C213.478 85.1217 213.321 85.1443 213.171 85.1632C213.02 85.182 212.896 85.1971 212.798 85.2084C212.564 85.2385 212.349 85.2893 212.154 85.3609C211.961 85.4325 211.807 85.5342 211.69 85.666C211.577 85.7979 211.521 85.973 211.521 86.1915C211.521 86.3911 211.572 86.5587 211.673 86.6943C211.779 86.8299 211.92 86.9316 212.097 86.9994C212.274 87.0672 212.479 87.1011 212.713 87.1011ZM219.945 81.6431V82.6545H216.521V81.6431H219.945ZM217.442 80.1402H218.685V86.2536C218.685 86.506 218.738 86.6925 218.843 86.813C218.953 86.9298 219.13 86.9881 219.374 86.9881C219.438 86.9881 219.523 86.9806 219.629 86.9655C219.734 86.9505 219.825 86.9354 219.9 86.9203L220.12 87.9148C219.988 87.96 219.847 87.992 219.696 88.0108C219.546 88.0334 219.397 88.0447 219.25 88.0447C218.678 88.0447 218.233 87.8978 217.917 87.604C217.6 87.3064 217.442 86.8902 217.442 86.3553V80.1402ZM223.798 88.0899C223.177 88.0899 222.64 87.9562 222.188 87.6888C221.736 87.4213 221.388 87.0446 221.143 86.5587C220.902 86.0728 220.781 85.5022 220.781 84.8467C220.781 84.1989 220.9 83.6282 221.137 83.1348C221.378 82.6413 221.717 82.2571 222.154 81.9821C222.591 81.7034 223.103 81.564 223.691 81.564C224.053 81.564 224.401 81.6243 224.736 81.7448C225.072 81.8616 225.373 82.0462 225.64 82.2985C225.908 82.5509 226.119 82.8786 226.273 83.2817C226.431 83.6809 226.51 84.1669 226.51 84.7394V85.1801H221.476V84.2535H225.872L225.29 84.5586C225.29 84.1706 225.23 83.8297 225.109 83.5359C224.989 83.2384 224.81 83.0067 224.572 82.841C224.339 82.6752 224.045 82.5924 223.691 82.5924C223.341 82.5924 223.041 82.6771 222.793 82.8466C222.544 83.0161 222.354 83.2402 222.222 83.519C222.094 83.7939 222.03 84.0953 222.03 84.423V85.0558C222.03 85.489 222.103 85.8562 222.25 86.1576C222.401 86.4551 222.61 86.6812 222.877 86.8356C223.145 86.9863 223.456 87.0616 223.81 87.0616C224.043 87.0616 224.254 87.0296 224.443 86.9655C224.631 86.8977 224.793 86.7979 224.928 86.6661C225.068 86.5305 225.173 86.3647 225.245 86.1689L226.414 86.4457C226.313 86.7697 226.141 87.0559 225.9 87.3045C225.663 87.5532 225.365 87.7471 225.008 87.8865C224.653 88.0221 224.25 88.0899 223.798 88.0899ZM229.081 87.96L227.183 81.6431H228.494L229.189 84.2591C229.29 84.6509 229.4 85.0878 229.516 85.57C229.633 86.0483 229.746 86.5889 229.855 87.1915H229.675C229.784 86.6115 229.897 86.0804 230.014 85.5982C230.13 85.1161 230.241 84.6697 230.347 84.2591L231.042 81.6431H232.285L232.969 84.2591C233.074 84.6584 233.183 85.0991 233.296 85.5813C233.413 86.0634 233.526 86.6002 233.635 87.1915H233.449C233.562 86.6077 233.675 86.0747 233.788 85.5926C233.901 85.1104 234.01 84.6659 234.116 84.2591L234.81 81.6431H236.133L234.229 87.96H232.98L232.2 85.2423C232.121 84.9673 232.044 84.681 231.968 84.3834C231.893 84.0821 231.82 83.7751 231.748 83.4625C231.677 83.1498 231.603 82.8391 231.528 82.5302H231.782C231.71 82.8353 231.637 83.1461 231.562 83.4625C231.49 83.7751 231.417 84.084 231.341 84.3891C231.266 84.6904 231.189 84.9748 231.11 85.2423L230.33 87.96H229.081ZM239.048 88.1012C238.649 88.1012 238.287 88.0278 237.963 87.8809C237.639 87.7302 237.383 87.5117 237.195 87.2254C237.006 86.9392 236.912 86.5889 236.912 86.1745C236.912 85.8167 236.98 85.5229 237.116 85.2931C237.255 85.0633 237.442 84.8806 237.675 84.745C237.912 84.6094 238.174 84.5077 238.46 84.4399C238.75 84.3721 239.044 84.3213 239.342 84.2874C239.715 84.2422 240.018 84.2064 240.252 84.18C240.485 84.1499 240.656 84.1028 240.766 84.0388C240.879 83.971 240.935 83.8636 240.935 83.7167V83.6828C240.935 83.4455 240.89 83.2459 240.8 83.0839C240.709 82.9219 240.574 82.7976 240.393 82.711C240.216 82.6206 239.994 82.5754 239.726 82.5754C239.451 82.5754 239.214 82.6187 239.014 82.7054C238.818 82.7882 238.658 82.8956 238.534 83.0274C238.413 83.1592 238.323 83.2967 238.263 83.4399L237.093 83.1348C237.236 82.7581 237.442 82.4549 237.709 82.2251C237.976 81.9953 238.283 81.8277 238.63 81.7222C238.977 81.6168 239.334 81.564 239.703 81.564C239.96 81.564 240.231 81.5942 240.517 81.6544C240.803 81.7147 241.073 81.8239 241.325 81.9821C241.577 82.1403 241.783 82.3626 241.941 82.6489C242.099 82.9351 242.178 83.308 242.178 83.7676V87.96H240.975V87.0955H240.913C240.83 87.2575 240.707 87.4157 240.545 87.5701C240.383 87.7245 240.178 87.8526 239.929 87.9543C239.685 88.0522 239.391 88.1012 239.048 88.1012ZM239.325 87.1011C239.664 87.1011 239.954 87.0352 240.195 86.9034C240.436 86.7716 240.621 86.5964 240.749 86.3779C240.877 86.1595 240.941 85.9278 240.941 85.683V84.875C240.896 84.9202 240.809 84.9616 240.681 84.9993C240.557 85.0332 240.414 85.0652 240.252 85.0954C240.09 85.1217 239.933 85.1443 239.783 85.1632C239.632 85.182 239.508 85.1971 239.41 85.2084C239.176 85.2385 238.961 85.2893 238.766 85.3609C238.573 85.4325 238.419 85.5342 238.302 85.666C238.189 85.7979 238.133 85.973 238.133 86.1915C238.133 86.3911 238.184 86.5587 238.285 86.6943C238.391 86.8299 238.532 86.9316 238.709 86.9994C238.886 87.0672 239.091 87.1011 239.325 87.1011ZM243.591 90.2313L243.896 89.2199L244.037 89.2538C244.252 89.3103 244.444 89.3254 244.613 89.299C244.787 89.2727 244.935 89.1917 245.06 89.0561C245.188 88.9242 245.29 88.7227 245.365 88.4515L245.5 87.9882L243.099 81.6431H244.444L245.693 85.231C245.832 85.6302 245.947 86.0276 246.037 86.4231C246.131 86.8186 246.233 87.2123 246.342 87.604H245.958C246.067 87.2123 246.171 86.8186 246.269 86.4231C246.371 86.0239 246.491 85.6265 246.631 85.231L247.902 81.6431H249.235L246.489 88.8357C246.361 89.1747 246.203 89.4572 246.015 89.6832C245.83 89.9092 245.61 90.0788 245.354 90.1918C245.097 90.3085 244.8 90.3669 244.461 90.3669C244.265 90.3669 244.09 90.3518 243.935 90.3217C243.781 90.2953 243.666 90.2652 243.591 90.2313Z" fill="#CECFD2" />
</g>
<g id="â Lozenge (Beta)">
<path d="M261.412 74.769H297.958C299.828 74.7691 301.344 76.2857 301.344 78.1558V89.7651C301.344 91.635 299.828 93.1508 297.958 93.1509H261.412C259.542 93.1509 258.026 91.635 258.025 89.7651V78.1558C258.025 76.2857 259.542 74.769 261.412 74.769Z" fill="#5D1F1A" />
<path d="M261.412 74.769H297.958C299.828 74.7691 301.344 76.2857 301.344 78.1558V89.7651C301.344 91.635 299.828 93.1508 297.958 93.1509H261.412C259.542 93.1509 258.026 91.635 258.025 89.7651V78.1558C258.025 76.2857 259.542 74.769 261.412 74.769Z" stroke="#FF8C7B" stroke-width="0.967439" />
<g id="inline">
<path id="âï¸ {children}" d="M263.702 88.46V80.0413H268.792V80.9905H264.775V83.8721H268.408V84.8213H264.775V88.46H263.702ZM271.9 88.6069C271.501 88.6069 271.137 88.5315 270.809 88.3809C270.485 88.2302 270.227 88.0098 270.035 87.7198C269.843 87.4298 269.747 87.0776 269.747 86.6632C269.747 86.3016 269.819 86.0078 269.962 85.7818C270.105 85.5558 270.295 85.3788 270.533 85.2507C270.774 85.1189 271.039 85.0209 271.329 84.9569C271.619 84.8929 271.911 84.842 272.205 84.8043C272.582 84.7554 272.889 84.7177 273.126 84.6913C273.363 84.665 273.538 84.6198 273.651 84.5557C273.768 84.4917 273.827 84.3825 273.827 84.228V84.1941C273.827 83.9305 273.778 83.7082 273.68 83.5274C273.582 83.3428 273.435 83.2016 273.239 83.1037C273.043 83.0057 272.798 82.9568 272.504 82.9568C272.203 82.9568 271.945 83.0038 271.73 83.098C271.516 83.1922 271.341 83.3108 271.205 83.454C271.073 83.5933 270.973 83.7365 270.905 83.8834L269.928 83.5613C270.09 83.1771 270.308 82.8777 270.583 82.6629C270.858 82.4445 271.162 82.29 271.493 82.1996C271.825 82.1092 272.152 82.064 272.476 82.064C272.687 82.064 272.926 82.0904 273.194 82.1431C273.465 82.1921 273.725 82.2919 273.973 82.4426C274.226 82.5933 274.433 82.8174 274.595 83.115C274.761 83.4088 274.844 83.8024 274.844 84.2958V88.46H273.844V87.6011H273.776C273.704 87.748 273.589 87.9006 273.431 88.0588C273.273 88.2132 273.068 88.3432 272.815 88.4487C272.563 88.5541 272.258 88.6069 271.9 88.6069ZM272.075 87.7085C272.452 87.7085 272.77 87.635 273.03 87.4881C273.29 87.3412 273.488 87.151 273.623 86.9175C273.759 86.6802 273.827 86.4335 273.827 86.1773V85.3015C273.785 85.3505 273.695 85.3957 273.555 85.4372C273.416 85.4748 273.256 85.5087 273.075 85.5389C272.898 85.569 272.725 85.5954 272.555 85.618C272.39 85.6368 272.258 85.6519 272.16 85.6632C271.915 85.6933 271.685 85.746 271.47 85.8214C271.26 85.8929 271.09 86.0003 270.962 86.1434C270.834 86.2828 270.77 86.473 270.77 86.7141C270.77 86.9325 270.826 87.1152 270.939 87.2621C271.052 87.409 271.207 87.5202 271.403 87.5955C271.599 87.6708 271.823 87.7085 272.075 87.7085ZM278.77 88.5391C278.345 88.5391 277.97 88.4524 277.646 88.2792C277.326 88.1021 277.075 87.8366 276.895 87.4825C276.718 87.1284 276.629 86.6858 276.629 86.1547V82.1431H277.646V86.07C277.646 86.5559 277.774 86.9363 278.03 87.2113C278.286 87.4863 278.635 87.6237 279.076 87.6237C279.377 87.6237 279.646 87.5578 279.884 87.426C280.125 87.2942 280.315 87.1021 280.454 86.8497C280.594 86.5935 280.663 86.2866 280.663 85.9287V82.1431H281.686V88.46H280.703V86.9288H280.838C280.643 87.5202 280.364 87.9364 280.002 88.1775C279.644 88.4185 279.234 88.5391 278.77 88.5391ZM284.494 80.0413V88.46H283.477V80.0413H284.494ZM288.935 82.1431V83.0133H285.669V82.1431H288.935ZM286.618 80.6402H287.635V86.8214C287.635 87.1039 287.692 87.3111 287.805 87.4429C287.922 87.571 288.114 87.635 288.381 87.635C288.445 87.635 288.526 87.6275 288.624 87.6124C288.726 87.5974 288.818 87.5823 288.901 87.5672L289.11 88.4261C289.005 88.4637 288.884 88.492 288.749 88.5108C288.617 88.5296 288.485 88.5391 288.353 88.5391C287.807 88.5391 287.381 88.3959 287.076 88.1097C286.771 87.8196 286.618 87.4166 286.618 86.9005V80.6402ZM290.359 90.7483L290.619 89.8668L290.726 89.8951C290.933 89.9478 291.122 89.961 291.291 89.9346C291.461 89.912 291.613 89.8292 291.749 89.686C291.884 89.5429 292.003 89.3207 292.105 89.0193L292.286 88.4939L289.873 82.1431H290.986L292.331 85.8892C292.474 86.2809 292.594 86.6689 292.692 87.0531C292.79 87.4373 292.894 87.8102 293.003 88.1718H292.63C292.739 87.8102 292.843 87.4373 292.941 87.0531C293.043 86.6651 293.163 86.2771 293.303 85.8892L294.659 82.1431H295.766L292.992 89.4035C292.864 89.7388 292.709 90.0137 292.528 90.2284C292.351 90.4469 292.144 90.607 291.907 90.7087C291.67 90.8142 291.402 90.8669 291.105 90.8669C290.924 90.8669 290.768 90.8537 290.636 90.8274C290.504 90.801 290.412 90.7746 290.359 90.7483Z" fill="#FFD5D2" />
</g>
</g>
</g>
</g>
</g>
<g id="Card - March_3" filter="url(#filter3_d_8979_36407)">
<rect x="220.214" y="126.018" width="93.8396" height="19.5197" rx="4.87993" fill="#242528" />
<rect x="220.519" y="126.323" width="93.2296" height="18.9097" rx="4.57494" stroke="#E3E4F2" stroke-opacity="0.14" stroke-width="0.609992" />
<g id="â Icon tile_4">
<path d="M225.094 132.728C225.094 131.043 226.459 129.678 228.144 129.678H234.244C235.928 129.678 237.294 131.043 237.294 132.728V138.828C237.294 140.512 235.928 141.878 234.244 141.878H228.144C226.459 141.878 225.094 140.512 225.094 138.828V132.728Z" fill="#CECFD2" fill-opacity="0.06" />
<g id="SVG_4">
<g id="&lt;Icon&gt;_4">
<g id="Icon_4">
<path id="Glyph_4" d="M234.168 137.951C234.168 137.635 233.912 137.379 233.596 137.379C233.28 137.379 233.024 137.635 233.024 137.951C233.024 138.267 233.28 138.523 233.596 138.523C233.912 138.523 234.168 138.267 234.168 137.951ZM234.168 133.605C234.168 133.289 233.912 133.033 233.596 133.033C233.28 133.033 233.024 133.289 233.024 133.605C233.024 133.921 233.28 134.177 233.596 134.177C233.912 134.177 234.168 133.921 234.168 133.605ZM234.854 133.605C234.854 134.3 234.291 134.863 233.596 134.863C233.02 134.863 232.536 134.476 232.387 133.948H231.532C231.363 133.948 231.203 134.032 231.107 134.172L230.008 135.778L231.107 137.384C231.203 137.524 231.363 137.608 231.532 137.608H232.387C232.536 137.08 233.02 136.693 233.596 136.693C234.291 136.693 234.854 137.256 234.854 137.951C234.854 138.646 234.291 139.209 233.596 139.209C233.02 139.209 232.536 138.822 232.387 138.294H231.532C231.136 138.294 230.765 138.099 230.541 137.771L229.412 136.121H227.534V135.435H229.412L230.541 133.784C230.765 133.457 231.136 133.262 231.532 133.262H232.387C232.536 132.734 233.02 132.347 233.596 132.347C234.291 132.347 234.854 132.91 234.854 133.605Z" fill="#AF59E1" />
</g>
</g>
</g>
</g>
<g id="Frame 849_4">
<path id="feature-flag-service" d="M244.491 134.456V134.982H242.242V134.456H244.491ZM242.994 138.277V133.947C242.994 133.726 243.045 133.541 243.148 133.393C243.253 133.245 243.388 133.133 243.555 133.058C243.721 132.983 243.896 132.945 244.081 132.945C244.227 132.945 244.348 132.958 244.443 132.983C244.539 133.006 244.61 133.027 244.655 133.048L244.484 133.574C244.452 133.563 244.41 133.55 244.358 133.537C244.308 133.523 244.239 133.516 244.153 133.516C243.964 133.516 243.826 133.565 243.739 133.663C243.653 133.759 243.609 133.899 243.609 134.083V138.277H242.994ZM246.706 138.359C246.337 138.359 246.018 138.277 245.749 138.113C245.482 137.949 245.276 137.72 245.13 137.426C244.987 137.132 244.915 136.789 244.915 136.397C244.915 136.006 244.986 135.66 245.127 135.362C245.268 135.063 245.468 134.83 245.725 134.661C245.985 134.493 246.288 134.408 246.634 134.408C246.837 134.408 247.036 134.442 247.232 134.511C247.431 134.577 247.61 134.685 247.769 134.835C247.931 134.984 248.06 135.18 248.155 135.423C248.251 135.667 248.299 135.966 248.299 136.319V136.575H245.332V136.056H247.967L247.68 136.247C247.68 135.996 247.64 135.774 247.561 135.581C247.483 135.385 247.367 135.232 247.212 135.123C247.057 135.011 246.864 134.955 246.634 134.955C246.404 134.955 246.207 135.012 246.043 135.126C245.879 135.238 245.754 135.385 245.667 135.567C245.58 135.747 245.537 135.941 245.537 136.148V136.493C245.537 136.776 245.586 137.016 245.684 137.214C245.782 137.41 245.919 137.56 246.094 137.662C246.272 137.762 246.477 137.812 246.709 137.812C246.86 137.812 246.997 137.791 247.12 137.748C247.243 137.704 247.349 137.639 247.438 137.553C247.526 137.464 247.595 137.354 247.643 137.225L248.237 137.389C248.178 137.58 248.078 137.749 247.937 137.895C247.795 138.04 247.62 138.154 247.41 138.236C247.203 138.318 246.968 138.359 246.706 138.359ZM250.319 138.366C250.077 138.366 249.857 138.321 249.659 138.229C249.463 138.138 249.307 138.005 249.191 137.83C249.075 137.654 249.017 137.441 249.017 137.19C249.017 136.972 249.06 136.794 249.146 136.657C249.233 136.521 249.348 136.413 249.492 136.336C249.638 136.256 249.798 136.197 249.974 136.158C250.149 136.119 250.326 136.089 250.503 136.066C250.731 136.036 250.917 136.014 251.061 135.998C251.204 135.982 251.31 135.954 251.378 135.916C251.449 135.877 251.484 135.811 251.484 135.717V135.697C251.484 135.537 251.455 135.403 251.396 135.293C251.336 135.182 251.247 135.096 251.129 135.037C251.01 134.978 250.862 134.948 250.685 134.948C250.502 134.948 250.346 134.977 250.216 135.034C250.086 135.091 249.98 135.162 249.898 135.249C249.819 135.333 249.758 135.42 249.717 135.509L249.126 135.314C249.224 135.082 249.356 134.9 249.522 134.771C249.689 134.638 249.872 134.545 250.073 134.49C250.273 134.436 250.472 134.408 250.667 134.408C250.795 134.408 250.94 134.424 251.102 134.456C251.266 134.486 251.423 134.546 251.573 134.637C251.726 134.728 251.851 134.864 251.949 135.044C252.049 135.222 252.1 135.46 252.1 135.758V138.277H251.495V137.758H251.454C251.41 137.847 251.341 137.939 251.245 138.035C251.149 138.128 251.025 138.207 250.873 138.271C250.72 138.334 250.535 138.366 250.319 138.366ZM250.425 137.823C250.653 137.823 250.845 137.778 251.002 137.689C251.16 137.601 251.279 137.486 251.361 137.344C251.443 137.201 251.484 137.051 251.484 136.896V136.367C251.459 136.396 251.405 136.424 251.32 136.449C251.236 136.472 251.139 136.492 251.03 136.51C250.923 136.528 250.818 136.544 250.715 136.558C250.615 136.569 250.535 136.579 250.476 136.585C250.328 136.604 250.189 136.636 250.059 136.681C249.931 136.724 249.829 136.789 249.751 136.876C249.674 136.96 249.635 137.075 249.635 137.221C249.635 137.353 249.669 137.464 249.738 137.553C249.806 137.642 249.9 137.709 250.018 137.754C250.137 137.8 250.272 137.823 250.425 137.823ZM254.684 134.456V134.982H252.708V134.456H254.684ZM253.282 133.547H253.897V137.286C253.897 137.457 253.932 137.582 254 137.662C254.071 137.74 254.187 137.778 254.349 137.778C254.387 137.778 254.436 137.774 254.496 137.765C254.557 137.756 254.613 137.746 254.663 137.737L254.79 138.257C254.726 138.28 254.653 138.297 254.571 138.308C254.491 138.319 254.411 138.325 254.332 138.325C254.001 138.325 253.744 138.239 253.559 138.065C253.375 137.89 253.282 137.646 253.282 137.334V133.547ZM256.765 138.325C256.508 138.325 256.281 138.273 256.085 138.168C255.891 138.061 255.74 137.9 255.63 137.686C255.523 137.472 255.47 137.204 255.47 136.883V134.456H256.085V136.832C256.085 137.125 256.162 137.356 256.317 137.522C256.472 137.688 256.683 137.771 256.95 137.771C257.132 137.771 257.295 137.732 257.438 137.652C257.584 137.572 257.699 137.456 257.784 137.303C257.868 137.148 257.91 136.963 257.91 136.746V134.456H258.529V138.277H257.934V137.351H258.016C257.898 137.709 257.729 137.961 257.51 138.106C257.294 138.252 257.045 138.325 256.765 138.325ZM259.612 138.277V134.456H260.207V135.044H260.248C260.319 134.85 260.444 134.695 260.624 134.579C260.806 134.461 261.011 134.401 261.239 134.401C261.285 134.401 261.338 134.403 261.4 134.405C261.464 134.407 261.514 134.409 261.55 134.412V135.03C261.532 135.026 261.486 135.019 261.414 135.01C261.341 135.001 261.263 134.996 261.181 134.996C260.999 134.996 260.835 135.035 260.689 135.112C260.545 135.188 260.433 135.292 260.351 135.427C260.269 135.559 260.228 135.712 260.228 135.885V138.277H259.612ZM263.741 138.359C263.372 138.359 263.053 138.277 262.784 138.113C262.518 137.949 262.311 137.72 262.166 137.426C262.022 137.132 261.95 136.789 261.95 136.397C261.95 136.006 262.021 135.66 262.162 135.362C262.303 135.063 262.503 134.83 262.76 134.661C263.02 134.493 263.323 134.408 263.669 134.408C263.872 134.408 264.072 134.442 264.268 134.511C264.466 134.577 264.645 134.685 264.804 134.835C264.966 134.984 265.095 135.18 265.19 135.423C265.286 135.667 265.334 135.966 265.334 136.319V136.575H262.367V136.056H265.002L264.715 136.247C264.715 135.996 264.675 135.774 264.596 135.581C264.518 135.385 264.402 135.232 264.247 135.123C264.092 135.011 263.9 134.955 263.669 134.955C263.439 134.955 263.242 135.012 263.078 135.126C262.914 135.238 262.789 135.385 262.702 135.567C262.616 135.747 262.572 135.941 262.572 136.148V136.493C262.572 136.776 262.621 137.016 262.719 137.214C262.817 137.41 262.954 137.56 263.129 137.662C263.307 137.762 263.512 137.812 263.745 137.812C263.895 137.812 264.032 137.791 264.155 137.748C264.278 137.704 264.384 137.639 264.473 137.553C264.562 137.464 264.63 137.354 264.678 137.225L265.272 137.389C265.213 137.58 265.113 137.749 264.972 137.895C264.83 138.04 264.655 138.154 264.445 138.236C264.238 138.318 264.003 138.359 263.741 138.359ZM268.403 135.82V136.387H266.168V135.82H268.403ZM271.213 134.456V134.982H268.964V134.456H271.213ZM269.716 138.277V133.947C269.716 133.726 269.767 133.541 269.87 133.393C269.974 133.245 270.11 133.133 270.276 133.058C270.443 132.983 270.618 132.945 270.803 132.945C270.949 132.945 271.069 132.958 271.165 132.983C271.261 133.006 271.331 133.027 271.377 133.048L271.206 133.574C271.174 133.563 271.132 133.55 271.08 133.537C271.029 133.523 270.961 133.516 270.875 133.516C270.685 133.516 270.548 133.565 270.461 133.663C270.374 133.759 270.331 133.899 270.331 134.083V138.277H269.716ZM272.642 133.185V138.277H272.026V133.185H272.642ZM274.792 138.366C274.55 138.366 274.33 138.321 274.132 138.229C273.936 138.138 273.78 138.005 273.664 137.83C273.547 137.654 273.489 137.441 273.489 137.19C273.489 136.972 273.533 136.794 273.619 136.657C273.706 136.521 273.821 136.413 273.964 136.336C274.11 136.256 274.271 136.197 274.446 136.158C274.622 136.119 274.798 136.089 274.976 136.066C275.204 136.036 275.39 136.014 275.533 135.998C275.677 135.982 275.783 135.954 275.851 135.916C275.922 135.877 275.957 135.811 275.957 135.717V135.697C275.957 135.537 275.927 135.403 275.868 135.293C275.809 135.182 275.72 135.096 275.602 135.037C275.483 134.978 275.335 134.948 275.157 134.948C274.975 134.948 274.819 134.977 274.689 135.034C274.559 135.091 274.453 135.162 274.371 135.249C274.291 135.333 274.231 135.42 274.19 135.509L273.599 135.314C273.697 135.082 273.829 134.9 273.995 134.771C274.161 134.638 274.345 134.545 274.545 134.49C274.746 134.436 274.944 134.408 275.14 134.408C275.268 134.408 275.412 134.424 275.574 134.456C275.738 134.486 275.896 134.546 276.046 134.637C276.199 134.728 276.324 134.864 276.422 135.044C276.522 135.222 276.572 135.46 276.572 135.758V138.277H275.967V137.758H275.926C275.883 137.847 275.813 137.939 275.718 138.035C275.622 138.128 275.498 138.207 275.345 138.271C275.193 138.334 275.008 138.366 274.792 138.366ZM274.897 137.823C275.125 137.823 275.318 137.778 275.475 137.689C275.632 137.601 275.752 137.486 275.834 137.344C275.916 137.201 275.957 137.051 275.957 136.896V136.367C275.932 136.396 275.877 136.424 275.793 136.449C275.709 136.472 275.612 136.492 275.502 136.51C275.395 136.528 275.291 136.544 275.188 136.558C275.088 136.569 275.008 136.579 274.949 136.585C274.801 136.604 274.662 136.636 274.532 136.681C274.404 136.724 274.302 136.789 274.224 136.876C274.147 136.96 274.108 137.075 274.108 137.221C274.108 137.353 274.142 137.464 274.21 137.553C274.279 137.642 274.372 137.709 274.491 137.754C274.609 137.8 274.745 137.823 274.897 137.823ZM279.201 139.788C278.918 139.788 278.673 139.752 278.466 139.679C278.261 139.608 278.09 139.514 277.953 139.395C277.816 139.277 277.708 139.148 277.628 139.009L278.127 138.688C278.182 138.76 278.249 138.841 278.329 138.93C278.411 139.019 278.521 139.094 278.657 139.156C278.796 139.22 278.977 139.251 279.201 139.251C279.506 139.251 279.757 139.179 279.953 139.033C280.151 138.887 280.25 138.657 280.25 138.342V137.577H280.192C280.149 137.65 280.087 137.736 280.007 137.836C279.93 137.937 279.817 138.026 279.669 138.103C279.523 138.178 279.327 138.216 279.081 138.216C278.776 138.216 278.501 138.144 278.257 138C278.014 137.855 277.821 137.643 277.68 137.365C277.538 137.087 277.468 136.748 277.468 136.35C277.468 135.955 277.537 135.614 277.676 135.324C277.815 135.033 278.007 134.807 278.25 134.647C278.497 134.488 278.778 134.408 279.095 134.408C279.341 134.408 279.537 134.449 279.683 134.531C279.831 134.611 279.945 134.703 280.024 134.808C280.104 134.913 280.166 135 280.209 135.068H280.267V134.456H280.865V138.376C280.865 138.705 280.791 138.972 280.643 139.18C280.495 139.389 280.294 139.543 280.042 139.641C279.791 139.739 279.511 139.788 279.201 139.788ZM279.184 137.669C279.416 137.669 279.612 137.617 279.771 137.512C279.931 137.405 280.052 137.252 280.134 137.054C280.216 136.853 280.257 136.614 280.257 136.336C280.257 136.065 280.216 135.827 280.134 135.622C280.054 135.414 279.934 135.252 279.775 135.136C279.615 135.018 279.418 134.958 279.184 134.958C278.942 134.958 278.74 135.021 278.579 135.146C278.417 135.27 278.295 135.435 278.213 135.642C278.133 135.849 278.093 136.081 278.093 136.336C278.093 136.598 278.134 136.829 278.216 137.03C278.298 137.23 278.42 137.388 278.582 137.501C278.744 137.613 278.944 137.669 279.184 137.669ZM284.133 135.82V136.387H281.897V135.82H284.133ZM286.464 138.359C286.202 138.359 285.968 138.322 285.763 138.247C285.56 138.169 285.393 138.055 285.261 137.905C285.129 137.754 285.04 137.57 284.994 137.351L285.579 137.211C285.633 137.421 285.736 137.574 285.886 137.672C286.039 137.77 286.229 137.819 286.457 137.819C286.724 137.819 286.936 137.762 287.093 137.648C287.252 137.535 287.332 137.399 287.332 137.242C287.332 137.11 287.285 137 287.192 136.914C287.101 136.825 286.961 136.759 286.771 136.715L286.136 136.565C285.789 136.483 285.532 136.356 285.363 136.186C285.195 136.012 285.11 135.791 285.11 135.522C285.11 135.304 285.172 135.111 285.295 134.945C285.418 134.776 285.585 134.645 285.797 134.552C286.012 134.456 286.254 134.408 286.525 134.408C286.787 134.408 287.01 134.448 287.192 134.528C287.376 134.605 287.526 134.714 287.64 134.853C287.756 134.989 287.842 135.148 287.899 135.328L287.342 135.471C287.29 135.334 287.202 135.21 287.079 135.099C286.958 134.987 286.775 134.931 286.529 134.931C286.301 134.931 286.111 134.984 285.958 135.088C285.808 135.193 285.732 135.325 285.732 135.485C285.732 135.626 285.784 135.74 285.886 135.827C285.989 135.911 286.152 135.979 286.375 136.032L286.953 136.168C287.299 136.25 287.555 136.378 287.722 136.551C287.888 136.722 287.971 136.939 287.971 137.201C287.971 137.424 287.907 137.623 287.78 137.799C287.654 137.972 287.478 138.109 287.25 138.209C287.024 138.309 286.762 138.359 286.464 138.359ZM290.47 138.359C290.101 138.359 289.782 138.277 289.513 138.113C289.246 137.949 289.04 137.72 288.894 137.426C288.75 137.132 288.679 136.789 288.679 136.397C288.679 136.006 288.749 135.66 288.891 135.362C289.032 135.063 289.231 134.83 289.489 134.661C289.749 134.493 290.052 134.408 290.398 134.408C290.601 134.408 290.8 134.442 290.996 134.511C291.194 134.577 291.373 134.685 291.533 134.835C291.694 134.984 291.823 135.18 291.919 135.423C292.015 135.667 292.062 135.966 292.062 136.319V136.575H289.096V136.056H291.731L291.444 136.247C291.444 135.996 291.404 135.774 291.324 135.581C291.247 135.385 291.131 135.232 290.976 135.123C290.821 135.011 290.628 134.955 290.398 134.955C290.168 134.955 289.971 135.012 289.807 135.126C289.643 135.238 289.517 135.385 289.431 135.567C289.344 135.747 289.301 135.941 289.301 136.148V136.493C289.301 136.776 289.35 137.016 289.448 137.214C289.546 137.41 289.682 137.56 289.858 137.662C290.036 137.762 290.241 137.812 290.473 137.812C290.624 137.812 290.76 137.791 290.883 137.748C291.006 137.704 291.112 137.639 291.201 137.553C291.29 137.464 291.358 137.354 291.406 137.225L292.001 137.389C291.942 137.58 291.841 137.749 291.7 137.895C291.559 138.04 291.383 138.154 291.174 138.236C290.966 138.318 290.732 138.359 290.47 138.359ZM292.944 138.277V134.456H293.539V135.044H293.58C293.651 134.85 293.776 134.695 293.956 134.579C294.138 134.461 294.343 134.401 294.571 134.401C294.617 134.401 294.67 134.403 294.732 134.405C294.796 134.407 294.846 134.409 294.882 134.412V135.03C294.864 135.026 294.819 135.019 294.746 135.01C294.673 135.001 294.595 134.996 294.513 134.996C294.331 134.996 294.167 135.035 294.021 135.112C293.877 135.188 293.765 135.292 293.683 135.427C293.601 135.559 293.56 135.712 293.56 135.885V138.277H292.944ZM296.796 138.277L295.337 134.456H296.01L296.824 136.722C296.91 136.957 296.983 137.192 297.042 137.426C297.104 137.659 297.168 137.884 297.234 138.103H297.008C297.074 137.884 297.137 137.659 297.196 137.426C297.258 137.192 297.331 136.957 297.415 136.722L298.229 134.456H298.902L297.442 138.277H296.796ZM299.63 138.277V134.456H300.245V138.277H299.63ZM299.606 133.854V133.185H300.276V133.854H299.606ZM302.88 138.359C302.534 138.359 302.23 138.277 301.968 138.113C301.708 137.949 301.505 137.719 301.359 137.423C301.214 137.127 301.141 136.783 301.141 136.391C301.141 135.992 301.214 135.644 301.359 135.348C301.505 135.05 301.708 134.818 301.968 134.654C302.23 134.49 302.534 134.408 302.88 134.408C303.065 134.408 303.239 134.432 303.403 134.48C303.567 134.528 303.717 134.597 303.851 134.688C303.988 134.777 304.105 134.888 304.203 135.02C304.301 135.15 304.376 135.298 304.429 135.464L303.837 135.632C303.81 135.534 303.768 135.444 303.711 135.362C303.654 135.28 303.584 135.209 303.502 135.15C303.423 135.088 303.33 135.042 303.226 135.01C303.121 134.976 303.006 134.958 302.88 134.958C302.625 134.958 302.416 135.026 302.251 135.16C302.087 135.292 301.965 135.467 301.886 135.683C301.806 135.9 301.766 136.135 301.766 136.391C301.766 136.641 301.806 136.875 301.886 137.091C301.965 137.306 302.087 137.479 302.251 137.611C302.416 137.743 302.625 137.809 302.88 137.809C303.008 137.809 303.125 137.792 303.232 137.758C303.34 137.724 303.434 137.676 303.516 137.614C303.6 137.55 303.671 137.475 303.728 137.389C303.785 137.302 303.827 137.208 303.854 137.105L304.442 137.272C304.392 137.443 304.317 137.596 304.217 137.73C304.119 137.863 304.001 137.977 303.865 138.072C303.728 138.166 303.576 138.236 303.41 138.284C303.244 138.334 303.067 138.359 302.88 138.359ZM306.931 138.359C306.562 138.359 306.243 138.277 305.974 138.113C305.707 137.949 305.501 137.72 305.355 137.426C305.211 137.132 305.14 136.789 305.14 136.397C305.14 136.006 305.21 135.66 305.352 135.362C305.493 135.063 305.692 134.83 305.95 134.661C306.209 134.493 306.513 134.408 306.859 134.408C307.062 134.408 307.261 134.442 307.457 134.511C307.655 134.577 307.834 134.685 307.994 134.835C308.155 134.984 308.284 135.18 308.38 135.423C308.476 135.667 308.523 135.966 308.523 136.319V136.575H305.557V136.056H308.192L307.905 136.247C307.905 135.996 307.865 135.774 307.785 135.581C307.708 135.385 307.591 135.232 307.437 135.123C307.282 135.011 307.089 134.955 306.859 134.955C306.629 134.955 306.432 135.012 306.268 135.126C306.104 135.238 305.978 135.385 305.892 135.567C305.805 135.747 305.762 135.941 305.762 136.148V136.493C305.762 136.776 305.811 137.016 305.909 137.214C306.007 137.41 306.143 137.56 306.319 137.662C306.497 137.762 306.702 137.812 306.934 137.812C307.084 137.812 307.221 137.791 307.344 137.748C307.467 137.704 307.573 137.639 307.662 137.553C307.751 137.464 307.819 137.354 307.867 137.225L308.462 137.389C308.403 137.58 308.302 137.749 308.161 137.895C308.02 138.04 307.844 138.154 307.635 138.236C307.427 138.318 307.193 138.359 306.931 138.359Z" fill="#CECFD2" />
</g>
</g>
</g>
</g>
</g>
<rect id="Rectangle 1171296836" width="20" height="379" transform="matrix(-4.37114e-08 1 1 4.37114e-08 0 0)" fill="url(#paint3_linear_8979_36407)" />
<rect id="Rectangle 1171296837" y="160" width="20" height="379" transform="rotate(-90 0 160)" fill="url(#paint4_linear_8979_36407)" />
</g>
</g>
</g>
</g>
</g>
</g>
</g>
<defs>
<filter id="filter0_dd_8979_36407" x="-1" y="-1" width="381" height="211" filterUnits="userSpaceOnUse" color-interpolation-filters="sRGB">
<feFlood flood-opacity="0" result="BackgroundImageFix" />
<feColorMatrix in="SourceAlpha" type="matrix" values="0 0 0 0 0 0 0 0 0 0 0 0 0 0 0 0 0 0 127 0" result="hardAlpha" />
<feOffset dy="1" />
<feGaussianBlur stdDeviation="0.5" />
<feColorMatrix type="matrix" values="0 0 0 0 0.117647 0 0 0 0 0.121569 0 0 0 0 0.129412 0 0 0 0.25 0" />
<feBlend mode="normal" in2="BackgroundImageFix" result="effect1_dropShadow_8979_36407" />
<feColorMatrix in="SourceAlpha" type="matrix" values="0 0 0 0 0 0 0 0 0 0 0 0 0 0 0 0 0 0 127 0" result="hardAlpha" />
<feOffset />
<feGaussianBlur stdDeviation="0.5" />
<feColorMatrix type="matrix" values="0 0 0 0 0.117647 0 0 0 0 0.121569 0 0 0 0 0.129412 0 0 0 0.31 0" />
<feBlend mode="normal" in2="effect1_dropShadow_8979_36407" result="effect2_dropShadow_8979_36407" />
<feBlend mode="normal" in="SourceGraphic" in2="effect2_dropShadow_8979_36407" result="shape" />
</filter>
<filter id="filter1_d_8979_36407" x="208.991" y="8.27344" width="120.84" height="55.5195" filterUnits="userSpaceOnUse" color-interpolation-filters="sRGB">
<feFlood flood-opacity="0" result="BackgroundImageFix" />
<feColorMatrix in="SourceAlpha" type="matrix" values="0 0 0 0 0 0 0 0 0 0 0 0 0 0 0 0 0 0 127 0" result="hardAlpha" />
<feOffset dy="3" />
<feGaussianBlur stdDeviation="9" />
<feComposite in2="hardAlpha" operator="out" />
<feColorMatrix type="matrix" values="0 0 0 0 0 0 0 0 0 0 0 0 0 0 0 0 0 0 0.05 0" />
<feBlend mode="normal" in2="BackgroundImageFix" result="effect1_dropShadow_8979_36407" />
<feBlend mode="normal" in="SourceGraphic" in2="effect1_dropShadow_8979_36407" result="shape" />
</filter>
<filter id="filter2_d_8979_36407" x="53.8246" y="48.3138" width="276.893" height="78.3509" filterUnits="userSpaceOnUse" color-interpolation-filters="sRGB">
<feFlood flood-opacity="0" result="BackgroundImageFix" />
<feColorMatrix in="SourceAlpha" type="matrix" values="0 0 0 0 0 0 0 0 0 0 0 0 0 0 0 0 0 0 127 0" result="hardAlpha" />
<feOffset dy="3.52924" />
<feGaussianBlur stdDeviation="10.5877" />
<feComposite in2="hardAlpha" operator="out" />
<feColorMatrix type="matrix" values="0 0 0 0 0 0 0 0 0 0 0 0 0 0 0 0 0 0 0.05 0" />
<feBlend mode="normal" in2="BackgroundImageFix" result="effect1_dropShadow_8979_36407" />
<feBlend mode="normal" in="SourceGraphic" in2="effect1_dropShadow_8979_36407" result="shape" />
</filter>
<filter id="filter3_d_8979_36407" x="202.214" y="111.018" width="129.84" height="55.5195" filterUnits="userSpaceOnUse" color-interpolation-filters="sRGB">
<feFlood flood-opacity="0" result="BackgroundImageFix" />
<feColorMatrix in="SourceAlpha" type="matrix" values="0 0 0 0 0 0 0 0 0 0 0 0 0 0 0 0 0 0 127 0" result="hardAlpha" />
<feOffset dy="3" />
<feGaussianBlur stdDeviation="9" />
<feComposite in2="hardAlpha" operator="out" />
<feColorMatrix type="matrix" values="0 0 0 0 0 0 0 0 0 0 0 0 0 0 0 0 0 0 0.05 0" />
<feBlend mode="normal" in2="BackgroundImageFix" result="effect1_dropShadow_8979_36407" />
<feBlend mode="normal" in="SourceGraphic" in2="effect1_dropShadow_8979_36407" result="shape" />
</filter>
<linearGradient id="paint0_linear_8979_36407" x1="215" y1="98.9998" x2="236.5" y2="113" gradientUnits="userSpaceOnUse">
<stop stop-color="#E2483D" />
<stop offset="1" stop-color="#7E8188" />
</linearGradient>
<linearGradient id="paint1_linear_8979_36407" x1="254.5" y1="43.5" x2="220" y2="71" gradientUnits="userSpaceOnUse">
<stop offset="0.475699" stop-color="#7E8188" />
<stop offset="1" stop-color="#E2483D" />
</linearGradient>
<linearGradient id="paint2_linear_8979_36407" x1="124.5" y1="51.0002" x2="148" y2="70.0002" gradientUnits="userSpaceOnUse">
<stop stop-color="#7E8188" />
<stop offset="1" stop-color="#E2483D" />
</linearGradient>
<linearGradient id="paint3_linear_8979_36407" x1="20" y1="189.5" x2="0" y2="189.5" gradientUnits="userSpaceOnUse">
<stop stop-color="#18191A" stop-opacity="0" />
<stop offset="1" stop-color="#18191A" />
</linearGradient>
<linearGradient id="paint4_linear_8979_36407" x1="20" y1="349.5" x2="0" y2="349.5" gradientUnits="userSpaceOnUse">
<stop stop-color="#18191A" stop-opacity="0" />
<stop offset="1" stop-color="#18191A" />
</linearGradient>
<clipPath id="clip0_8979_36407">
<rect width="379" height="160" fill="white" />
</clipPath>
<clipPath id="clip1_8979_36407">
<rect width="379" height="160" fill="white" />
</clipPath>
<clipPath id="clip2_8979_36407">
<rect x="44" y="-38" width="402.217" height="240.798" rx="5.06101" fill="white" />
</clipPath>
<clipPath id="clip3_8979_36407">
<rect width="13.7641" height="16.0875" fill="white" transform="translate(21.0938 19.8755)" />
</clipPath>
</defs>
</svg>